<svg width="91" height="91" viewBox="0 0 91 91" fill="none" xmlns="http://www.w3.org/2000/svg">
<g clip-path="url(#clip0_7845_99693)">
<path d="M8.87532 7.17188H7.17188V8.87532H8.87532V7.17188Z" fill="#FAFAFA"/>
<path d="M10.5788 7.17188H8.87532V8.87532H10.5788V7.17188Z" fill="#FAFAFA"/>
<path d="M12.2822 7.17188H10.5788V8.87532H12.2822V7.17188Z" fill="#FAFAFA"/>
<path d="M13.9857 7.17188H12.2822V8.87532H13.9857V7.17188Z" fill="#FAFAFA"/>
<path d="M15.6891 7.17188H13.9857V8.87532H15.6891V7.17188Z" fill="#FAFAFA"/>
<path d="M17.3926 7.17188H15.6891V8.87532H17.3926V7.17188Z" fill="#FAFAFA"/>
<path d="M19.096 7.17188H17.3926V8.87532H19.096V7.17188Z" fill="#FAFAFA"/>
<path d="M24.2064 7.17188H22.5029V8.87532H24.2064V7.17188Z" fill="#FAFAFA"/>
<path d="M31.0201 7.17188H29.3167V8.87532H31.0201V7.17188Z" fill="#FAFAFA"/>
<path d="M32.7236 7.17188H31.0201V8.87532H32.7236V7.17188Z" fill="#FAFAFA"/>
<path d="M34.427 7.17188H32.7236V8.87532H34.427V7.17188Z" fill="#FAFAFA"/>
<path d="M37.8339 7.17188H36.1305V8.87532H37.8339V7.17188Z" fill="#FAFAFA"/>
<path d="M39.5374 7.17188H37.8339V8.87532H39.5374V7.17188Z" fill="#FAFAFA"/>
<path d="M41.2408 7.17188H39.5374V8.87532H41.2408V7.17188Z" fill="#FAFAFA"/>
<path d="M44.6477 7.17188H42.9443V8.87532H44.6477V7.17188Z" fill="#FAFAFA"/>
<path d="M46.3512 7.17188H44.6477V8.87532H46.3512V7.17188Z" fill="#FAFAFA"/>
<path d="M51.4615 7.17188H49.7581V8.87532H51.4615V7.17188Z" fill="#FAFAFA"/>
<path d="M59.9788 7.17188H58.2753V8.87532H59.9788V7.17188Z" fill="#FAFAFA"/>
<path d="M61.6822 7.17188H59.9788V8.87532H61.6822V7.17188Z" fill="#FAFAFA"/>
<path d="M63.3857 7.17188H61.6822V8.87532H63.3857V7.17188Z" fill="#FAFAFA"/>
<path d="M65.0891 7.17188H63.3857V8.87532H65.0891V7.17188Z" fill="#FAFAFA"/>
<path d="M70.1995 7.17188H68.496V8.87532H70.1995V7.17188Z" fill="#FAFAFA"/>
<path d="M73.6064 7.17188H71.9029V8.87532H73.6064V7.17188Z" fill="#FAFAFA"/>
<path d="M75.3098 7.17188H73.6064V8.87532H75.3098V7.17188Z" fill="#FAFAFA"/>
<path d="M77.0132 7.17188H75.3098V8.87532H77.0132V7.17188Z" fill="#FAFAFA"/>
<path d="M78.7167 7.17188H77.0132V8.87532H78.7167V7.17188Z" fill="#FAFAFA"/>
<path d="M80.4201 7.17188H78.7167V8.87532H80.4201V7.17188Z" fill="#FAFAFA"/>
<path d="M82.1236 7.17188H80.4201V8.87532H82.1236V7.17188Z" fill="#FAFAFA"/>
<path d="M83.827 7.17188H82.1236V8.87532H83.827V7.17188Z" fill="#FAFAFA"/>
<path d="M8.87532 8.87532H7.17188V10.5788H8.87532V8.87532Z" fill="#FAFAFA"/>
<path d="M19.096 8.87532H17.3926V10.5788H19.096V8.87532Z" fill="#FAFAFA"/>
<path d="M22.5029 8.87532H20.7995V10.5788H22.5029V8.87532Z" fill="#FAFAFA"/>
<path d="M25.9098 8.87532H24.2064V10.5788H25.9098V8.87532Z" fill="#FAFAFA"/>
<path d="M27.6133 8.87532H25.9098V10.5788H27.6133V8.87532Z" fill="#FAFAFA"/>
<path d="M32.7236 8.87532H31.0201V10.5788H32.7236V8.87532Z" fill="#FAFAFA"/>
<path d="M36.1305 8.87532H34.427V10.5788H36.1305V8.87532Z" fill="#FAFAFA"/>
<path d="M37.8339 8.87532H36.1305V10.5788H37.8339V8.87532Z" fill="#FAFAFA"/>
<path d="M39.5374 8.87532H37.8339V10.5788H39.5374V8.87532Z" fill="#FAFAFA"/>
<path d="M42.9443 8.87532H41.2408V10.5788H42.9443V8.87532Z" fill="#FAFAFA"/>
<path d="M46.3512 8.87532H44.6477V10.5788H46.3512V8.87532Z" fill="#FAFAFA"/>
<path d="M48.0546 8.87532H46.3512V10.5788H48.0546V8.87532Z" fill="#FAFAFA"/>
<path d="M49.7581 8.87532H48.0546V10.5788H49.7581V8.87532Z" fill="#FAFAFA"/>
<path d="M51.4615 8.87532H49.7581V10.5788H51.4615V8.87532Z" fill="#FAFAFA"/>
<path d="M53.165 8.87532H51.4615V10.5788H53.165V8.87532Z" fill="#FAFAFA"/>
<path d="M54.8684 8.87532H53.165V10.5788H54.8684V8.87532Z" fill="#FAFAFA"/>
<path d="M59.9788 8.87532H58.2753V10.5788H59.9788V8.87532Z" fill="#FAFAFA"/>
<path d="M61.6822 8.87532H59.9788V10.5788H61.6822V8.87532Z" fill="#FAFAFA"/>
<path d="M68.496 8.87532H66.7926V10.5788H68.496V8.87532Z" fill="#FAFAFA"/>
<path d="M73.6064 8.87532H71.9029V10.5788H73.6064V8.87532Z" fill="#FAFAFA"/>
<path d="M83.827 8.87532H82.1236V10.5788H83.827V8.87532Z" fill="#FAFAFA"/>
<path d="M8.87532 10.5788H7.17188V12.2822H8.87532V10.5788Z" fill="#FAFAFA"/>
<path d="M12.2822 10.5788H10.5788V12.2822H12.2822V10.5788Z" fill="#FAFAFA"/>
<path d="M13.9857 10.5788H12.2822V12.2822H13.9857V10.5788Z" fill="#FAFAFA"/>
<path d="M15.6891 10.5788H13.9857V12.2822H15.6891V10.5788Z" fill="#FAFAFA"/>
<path d="M19.096 10.5788H17.3926V12.2822H19.096V10.5788Z" fill="#FAFAFA"/>
<path d="M22.5029 10.5788H20.7995V12.2822H22.5029V10.5788Z" fill="#FAFAFA"/>
<path d="M25.9098 10.5788H24.2064V12.2822H25.9098V10.5788Z" fill="#FAFAFA"/>
<path d="M32.7236 10.5788H31.0201V12.2822H32.7236V10.5788Z" fill="#FAFAFA"/>
<path d="M34.427 10.5788H32.7236V12.2822H34.427V10.5788Z" fill="#FAFAFA"/>
<path d="M37.8339 10.5788H36.1305V12.2822H37.8339V10.5788Z" fill="#FAFAFA"/>
<path d="M42.9443 10.5788H41.2408V12.2822H42.9443V10.5788Z" fill="#FAFAFA"/>
<path d="M48.0546 10.5788H46.3512V12.2822H48.0546V10.5788Z" fill="#FAFAFA"/>
<path d="M54.8684 10.5788H53.165V12.2822H54.8684V10.5788Z" fill="#FAFAFA"/>
<path d="M58.2753 10.5788H56.5719V12.2822H58.2753V10.5788Z" fill="#FAFAFA"/>
<path d="M61.6822 10.5788H59.9788V12.2822H61.6822V10.5788Z" fill="#FAFAFA"/>
<path d="M68.496 10.5788H66.7926V12.2822H68.496V10.5788Z" fill="#FAFAFA"/>
<path d="M73.6064 10.5788H71.9029V12.2822H73.6064V10.5788Z" fill="#FAFAFA"/>
<path d="M77.0132 10.5788H75.3098V12.2822H77.0132V10.5788Z" fill="#FAFAFA"/>
<path d="M78.7167 10.5788H77.0132V12.2822H78.7167V10.5788Z" fill="#FAFAFA"/>
<path d="M80.4201 10.5788H78.7167V12.2822H80.4201V10.5788Z" fill="#FAFAFA"/>
<path d="M83.827 10.5788H82.1236V12.2822H83.827V10.5788Z" fill="#FAFAFA"/>
<path d="M8.87532 12.2822H7.17188V13.9857H8.87532V12.2822Z" fill="#FAFAFA"/>
<path d="M12.2822 12.2822H10.5788V13.9857H12.2822V12.2822Z" fill="#FAFAFA"/>
<path d="M13.9857 12.2822H12.2822V13.9857H13.9857V12.2822Z" fill="#FAFAFA"/>
<path d="M15.6891 12.2822H13.9857V13.9857H15.6891V12.2822Z" fill="#FAFAFA"/>
<path d="M19.096 12.2822H17.3926V13.9857H19.096V12.2822Z" fill="#FAFAFA"/>
<path d="M22.5029 12.2822H20.7995V13.9857H22.5029V12.2822Z" fill="#FAFAFA"/>
<path d="M24.2064 12.2822H22.5029V13.9857H24.2064V12.2822Z" fill="#FAFAFA"/>
<path d="M25.9098 12.2822H24.2064V13.9857H25.9098V12.2822Z" fill="#FAFAFA"/>
<path d="M27.6133 12.2822H25.9098V13.9857H27.6133V12.2822Z" fill="#FAFAFA"/>
<path d="M29.3167 12.2822H27.6133V13.9857H29.3167V12.2822Z" fill="#FAFAFA"/>
<path d="M32.7236 12.2822H31.0201V13.9857H32.7236V12.2822Z" fill="#FAFAFA"/>
<path d="M34.427 12.2822H32.7236V13.9857H34.427V12.2822Z" fill="#FAFAFA"/>
<path d="M36.1305 12.2822H34.427V13.9857H36.1305V12.2822Z" fill="#FAFAFA"/>
<path d="M37.8339 12.2822H36.1305V13.9857H37.8339V12.2822Z" fill="#FAFAFA"/>
<path d="M39.5374 12.2822H37.8339V13.9857H39.5374V12.2822Z" fill="#FAFAFA"/>
<path d="M44.6477 12.2822H42.9443V13.9857H44.6477V12.2822Z" fill="#FAFAFA"/>
<path d="M46.3512 12.2822H44.6477V13.9857H46.3512V12.2822Z" fill="#FAFAFA"/>
<path d="M48.0546 12.2822H46.3512V13.9857H48.0546V12.2822Z" fill="#FAFAFA"/>
<path d="M51.4615 12.2822H49.7581V13.9857H51.4615V12.2822Z" fill="#FAFAFA"/>
<path d="M53.165 12.2822H51.4615V13.9857H53.165V12.2822Z" fill="#FAFAFA"/>
<path d="M58.2753 12.2822H56.5719V13.9857H58.2753V12.2822Z" fill="#FAFAFA"/>
<path d="M65.0891 12.2822H63.3857V13.9857H65.0891V12.2822Z" fill="#FAFAFA"/>
<path d="M68.496 12.2822H66.7926V13.9857H68.496V12.2822Z" fill="#FAFAFA"/>
<path d="M70.1995 12.2822H68.496V13.9857H70.1995V12.2822Z" fill="#FAFAFA"/>
<path d="M73.6064 12.2822H71.9029V13.9857H73.6064V12.2822Z" fill="#FAFAFA"/>
<path d="M77.0132 12.2822H75.3098V13.9857H77.0132V12.2822Z" fill="#FAFAFA"/>
<path d="M78.7167 12.2822H77.0132V13.9857H78.7167V12.2822Z" fill="#FAFAFA"/>
<path d="M80.4201 12.2822H78.7167V13.9857H80.4201V12.2822Z" fill="#FAFAFA"/>
<path d="M83.827 12.2822H82.1236V13.9857H83.827V12.2822Z" fill="#FAFAFA"/>
<path d="M8.87532 13.9857H7.17188V15.6891H8.87532V13.9857Z" fill="#FAFAFA"/>
<path d="M12.2822 13.9857H10.5788V15.6891H12.2822V13.9857Z" fill="#FAFAFA"/>
<path d="M13.9857 13.9857H12.2822V15.6891H13.9857V13.9857Z" fill="#FAFAFA"/>
<path d="M15.6891 13.9857H13.9857V15.6891H15.6891V13.9857Z" fill="#FAFAFA"/>
<path d="M19.096 13.9857H17.3926V15.6891H19.096V13.9857Z" fill="#FAFAFA"/>
<path d="M24.2064 13.9857H22.5029V15.6891H24.2064V13.9857Z" fill="#FAFAFA"/>
<path d="M32.7236 13.9857H31.0201V15.6891H32.7236V13.9857Z" fill="#FAFAFA"/>
<path d="M34.427 13.9857H32.7236V15.6891H34.427V13.9857Z" fill="#FAFAFA"/>
<path d="M36.1305 13.9857H34.427V15.6891H36.1305V13.9857Z" fill="#FAFAFA"/>
<path d="M37.8339 13.9857H36.1305V15.6891H37.8339V13.9857Z" fill="#FAFAFA"/>
<path d="M41.2408 13.9857H39.5374V15.6891H41.2408V13.9857Z" fill="#FAFAFA"/>
<path d="M42.9443 13.9857H41.2408V15.6891H42.9443V13.9857Z" fill="#FAFAFA"/>
<path d="M44.6477 13.9857H42.9443V15.6891H44.6477V13.9857Z" fill="#FAFAFA"/>
<path d="M46.3512 13.9857H44.6477V15.6891H46.3512V13.9857Z" fill="#FAFAFA"/>
<path d="M48.0546 13.9857H46.3512V15.6891H48.0546V13.9857Z" fill="#FAFAFA"/>
<path d="M49.7581 13.9857H48.0546V15.6891H49.7581V13.9857Z" fill="#FAFAFA"/>
<path d="M58.2753 13.9857H56.5719V15.6891H58.2753V13.9857Z" fill="#FAFAFA"/>
<path d="M63.3857 13.9857H61.6822V15.6891H63.3857V13.9857Z" fill="#FAFAFA"/>
<path d="M65.0891 13.9857H63.3857V15.6891H65.0891V13.9857Z" fill="#FAFAFA"/>
<path d="M66.7926 13.9857H65.0891V15.6891H66.7926V13.9857Z" fill="#FAFAFA"/>
<path d="M68.496 13.9857H66.7926V15.6891H68.496V13.9857Z" fill="#FAFAFA"/>
<path d="M70.1995 13.9857H68.496V15.6891H70.1995V13.9857Z" fill="#FAFAFA"/>
<path d="M73.6064 13.9857H71.9029V15.6891H73.6064V13.9857Z" fill="#FAFAFA"/>
<path d="M77.0132 13.9857H75.3098V15.6891H77.0132V13.9857Z" fill="#FAFAFA"/>
<path d="M78.7167 13.9857H77.0132V15.6891H78.7167V13.9857Z" fill="#FAFAFA"/>
<path d="M80.4201 13.9857H78.7167V15.6891H80.4201V13.9857Z" fill="#FAFAFA"/>
<path d="M83.827 13.9857H82.1236V15.6891H83.827V13.9857Z" fill="#FAFAFA"/>
<path d="M8.87532 15.6891H7.17188V17.3926H8.87532V15.6891Z" fill="#FAFAFA"/>
<path d="M19.096 15.6891H17.3926V17.3926H19.096V15.6891Z" fill="#FAFAFA"/>
<path d="M22.5029 15.6891H20.7995V17.3926H22.5029V15.6891Z" fill="#FAFAFA"/>
<path d="M27.6133 15.6891H25.9098V17.3926H27.6133V15.6891Z" fill="#FAFAFA"/>
<path d="M29.3167 15.6891H27.6133V17.3926H29.3167V15.6891Z" fill="#FAFAFA"/>
<path d="M31.0201 15.6891H29.3167V17.3926H31.0201V15.6891Z" fill="#FAFAFA"/>
<path d="M36.1305 15.6891H34.427V17.3926H36.1305V15.6891Z" fill="#FAFAFA"/>
<path d="M39.5374 15.6891H37.8339V17.3926H39.5374V15.6891Z" fill="#FAFAFA"/>
<path d="M41.2408 15.6891H39.5374V17.3926H41.2408V15.6891Z" fill="#FAFAFA"/>
<path d="M42.9443 15.6891H41.2408V17.3926H42.9443V15.6891Z" fill="#FAFAFA"/>
<path d="M49.7581 15.6891H48.0546V17.3926H49.7581V15.6891Z" fill="#FAFAFA"/>
<path d="M56.5719 15.6891H54.8684V17.3926H56.5719V15.6891Z" fill="#FAFAFA"/>
<path d="M61.6822 15.6891H59.9788V17.3926H61.6822V15.6891Z" fill="#FAFAFA"/>
<path d="M63.3857 15.6891H61.6822V17.3926H63.3857V15.6891Z" fill="#FAFAFA"/>
<path d="M65.0891 15.6891H63.3857V17.3926H65.0891V15.6891Z" fill="#FAFAFA"/>
<path d="M73.6064 15.6891H71.9029V17.3926H73.6064V15.6891Z" fill="#FAFAFA"/>
<path d="M83.827 15.6891H82.1236V17.3926H83.827V15.6891Z" fill="#FAFAFA"/>
<path d="M8.87532 17.3926H7.17188V19.096H8.87532V17.3926Z" fill="#FAFAFA"/>
<path d="M10.5788 17.3926H8.87532V19.096H10.5788V17.3926Z" fill="#FAFAFA"/>
<path d="M12.2822 17.3926H10.5788V19.096H12.2822V17.3926Z" fill="#FAFAFA"/>
<path d="M13.9857 17.3926H12.2822V19.096H13.9857V17.3926Z" fill="#FAFAFA"/>
<path d="M15.6891 17.3926H13.9857V19.096H15.6891V17.3926Z" fill="#FAFAFA"/>
<path d="M17.3926 17.3926H15.6891V19.096H17.3926V17.3926Z" fill="#FAFAFA"/>
<path d="M19.096 17.3926H17.3926V19.096H19.096V17.3926Z" fill="#FAFAFA"/>
<path d="M22.5029 17.3926H20.7995V19.096H22.5029V17.3926Z" fill="#FAFAFA"/>
<path d="M25.9098 17.3926H24.2064V19.096H25.9098V17.3926Z" fill="#FAFAFA"/>
<path d="M29.3167 17.3926H27.6133V19.096H29.3167V17.3926Z" fill="#FAFAFA"/>
<path d="M32.7236 17.3926H31.0201V19.096H32.7236V17.3926Z" fill="#FAFAFA"/>
<path d="M36.1305 17.3926H34.427V19.096H36.1305V17.3926Z" fill="#FAFAFA"/>
<path d="M39.5374 17.3926H37.8339V19.096H39.5374V17.3926Z" fill="#FAFAFA"/>
<path d="M42.9443 17.3926H41.2408V19.096H42.9443V17.3926Z" fill="#FAFAFA"/>
<path d="M46.3512 17.3926H44.6477V19.096H46.3512V17.3926Z" fill="#FAFAFA"/>
<path d="M49.7581 17.3926H48.0546V19.096H49.7581V17.3926Z" fill="#FAFAFA"/>
<path d="M53.165 17.3926H51.4615V19.096H53.165V17.3926Z" fill="#FAFAFA"/>
<path d="M56.5719 17.3926H54.8684V19.096H56.5719V17.3926Z" fill="#FAFAFA"/>
<path d="M59.9788 17.3926H58.2753V19.096H59.9788V17.3926Z" fill="#FAFAFA"/>
<path d="M63.3857 17.3926H61.6822V19.096H63.3857V17.3926Z" fill="#FAFAFA"/>
<path d="M66.7926 17.3926H65.0891V19.096H66.7926V17.3926Z" fill="#FAFAFA"/>
<path d="M70.1995 17.3926H68.496V19.096H70.1995V17.3926Z" fill="#FAFAFA"/>
<path d="M73.6064 17.3926H71.9029V19.096H73.6064V17.3926Z" fill="#FAFAFA"/>
<path d="M75.3098 17.3926H73.6064V19.096H75.3098V17.3926Z" fill="#FAFAFA"/>
<path d="M77.0132 17.3926H75.3098V19.096H77.0132V17.3926Z" fill="#FAFAFA"/>
<path d="M78.7167 17.3926H77.0132V19.096H78.7167V17.3926Z" fill="#FAFAFA"/>
<path d="M80.4201 17.3926H78.7167V19.096H80.4201V17.3926Z" fill="#FAFAFA"/>
<path d="M82.1236 17.3926H80.4201V19.096H82.1236V17.3926Z" fill="#FAFAFA"/>
<path d="M83.827 17.3926H82.1236V19.096H83.827V17.3926Z" fill="#FAFAFA"/>
<path d="M24.2064 19.096H22.5029V20.7995H24.2064V19.096Z" fill="#FAFAFA"/>
<path d="M27.6133 19.096H25.9098V20.7995H27.6133V19.096Z" fill="#FAFAFA"/>
<path d="M32.7236 19.096H31.0201V20.7995H32.7236V19.096Z" fill="#FAFAFA"/>
<path d="M34.427 19.096H32.7236V20.7995H34.427V19.096Z" fill="#FAFAFA"/>
<path d="M37.8339 19.096H36.1305V20.7995H37.8339V19.096Z" fill="#FAFAFA"/>
<path d="M39.5374 19.096H37.8339V20.7995H39.5374V19.096Z" fill="#FAFAFA"/>
<path d="M42.9443 19.096H41.2408V20.7995H42.9443V19.096Z" fill="#FAFAFA"/>
<path d="M49.7581 19.096H48.0546V20.7995H49.7581V19.096Z" fill="#FAFAFA"/>
<path d="M51.4615 19.096H49.7581V20.7995H51.4615V19.096Z" fill="#FAFAFA"/>
<path d="M53.165 19.096H51.4615V20.7995H53.165V19.096Z" fill="#FAFAFA"/>
<path d="M59.9788 19.096H58.2753V20.7995H59.9788V19.096Z" fill="#FAFAFA"/>
<path d="M61.6822 19.096H59.9788V20.7995H61.6822V19.096Z" fill="#FAFAFA"/>
<path d="M10.5788 20.7995H8.87532V22.5029H10.5788V20.7995Z" fill="#FAFAFA"/>
<path d="M12.2822 20.7995H10.5788V22.5029H12.2822V20.7995Z" fill="#FAFAFA"/>
<path d="M19.096 20.7995H17.3926V22.5029H19.096V20.7995Z" fill="#FAFAFA"/>
<path d="M29.3167 20.7995H27.6133V22.5029H29.3167V20.7995Z" fill="#FAFAFA"/>
<path d="M31.0201 20.7995H29.3167V22.5029H31.0201V20.7995Z" fill="#FAFAFA"/>
<path d="M34.427 20.7995H32.7236V22.5029H34.427V20.7995Z" fill="#FAFAFA"/>
<path d="M36.1305 20.7995H34.427V22.5029H36.1305V20.7995Z" fill="#FAFAFA"/>
<path d="M37.8339 20.7995H36.1305V22.5029H37.8339V20.7995Z" fill="#FAFAFA"/>
<path d="M39.5374 20.7995H37.8339V22.5029H39.5374V20.7995Z" fill="#FAFAFA"/>
<path d="M41.2408 20.7995H39.5374V22.5029H41.2408V20.7995Z" fill="#FAFAFA"/>
<path d="M42.9443 20.7995H41.2408V22.5029H42.9443V20.7995Z" fill="#FAFAFA"/>
<path d="M44.6477 20.7995H42.9443V22.5029H44.6477V20.7995Z" fill="#FAFAFA"/>
<path d="M46.3512 20.7995H44.6477V22.5029H46.3512V20.7995Z" fill="#FAFAFA"/>
<path d="M48.0546 20.7995H46.3512V22.5029H48.0546V20.7995Z" fill="#FAFAFA"/>
<path d="M49.7581 20.7995H48.0546V22.5029H49.7581V20.7995Z" fill="#FAFAFA"/>
<path d="M51.4615 20.7995H49.7581V22.5029H51.4615V20.7995Z" fill="#FAFAFA"/>
<path d="M58.2753 20.7995H56.5719V22.5029H58.2753V20.7995Z" fill="#FAFAFA"/>
<path d="M61.6822 20.7995H59.9788V22.5029H61.6822V20.7995Z" fill="#FAFAFA"/>
<path d="M66.7926 20.7995H65.0891V22.5029H66.7926V20.7995Z" fill="#FAFAFA"/>
<path d="M68.496 20.7995H66.7926V22.5029H68.496V20.7995Z" fill="#FAFAFA"/>
<path d="M70.1995 20.7995H68.496V22.5029H70.1995V20.7995Z" fill="#FAFAFA"/>
<path d="M71.9029 20.7995H70.1995V22.5029H71.9029V20.7995Z" fill="#FAFAFA"/>
<path d="M75.3098 20.7995H73.6064V22.5029H75.3098V20.7995Z" fill="#FAFAFA"/>
<path d="M78.7167 20.7995H77.0132V22.5029H78.7167V20.7995Z" fill="#FAFAFA"/>
<path d="M80.4201 20.7995H78.7167V22.5029H80.4201V20.7995Z" fill="#FAFAFA"/>
<path d="M82.1236 20.7995H80.4201V22.5029H82.1236V20.7995Z" fill="#FAFAFA"/>
<path d="M8.87532 22.5029H7.17188V24.2064H8.87532V22.5029Z" fill="#FAFAFA"/>
<path d="M20.7995 22.5029H19.096V24.2064H20.7995V22.5029Z" fill="#FAFAFA"/>
<path d="M25.9098 22.5029H24.2064V24.2064H25.9098V22.5029Z" fill="#FAFAFA"/>
<path d="M27.6133 22.5029H25.9098V24.2064H27.6133V22.5029Z" fill="#FAFAFA"/>
<path d="M29.3167 22.5029H27.6133V24.2064H29.3167V22.5029Z" fill="#FAFAFA"/>
<path d="M31.0201 22.5029H29.3167V24.2064H31.0201V22.5029Z" fill="#FAFAFA"/>
<path d="M36.1305 22.5029H34.427V24.2064H36.1305V22.5029Z" fill="#FAFAFA"/>
<path d="M37.8339 22.5029H36.1305V24.2064H37.8339V22.5029Z" fill="#FAFAFA"/>
<path d="M42.9443 22.5029H41.2408V24.2064H42.9443V22.5029Z" fill="#FAFAFA"/>
<path d="M44.6477 22.5029H42.9443V24.2064H44.6477V22.5029Z" fill="#FAFAFA"/>
<path d="M49.7581 22.5029H48.0546V24.2064H49.7581V22.5029Z" fill="#FAFAFA"/>
<path d="M51.4615 22.5029H49.7581V24.2064H51.4615V22.5029Z" fill="#FAFAFA"/>
<path d="M53.165 22.5029H51.4615V24.2064H53.165V22.5029Z" fill="#FAFAFA"/>
<path d="M54.8684 22.5029H53.165V24.2064H54.8684V22.5029Z" fill="#FAFAFA"/>
<path d="M58.2753 22.5029H56.5719V24.2064H58.2753V22.5029Z" fill="#FAFAFA"/>
<path d="M63.3857 22.5029H61.6822V24.2064H63.3857V22.5029Z" fill="#FAFAFA"/>
<path d="M66.7926 22.5029H65.0891V24.2064H66.7926V22.5029Z" fill="#FAFAFA"/>
<path d="M70.1995 22.5029H68.496V24.2064H70.1995V22.5029Z" fill="#FAFAFA"/>
<path d="M73.6064 22.5029H71.9029V24.2064H73.6064V22.5029Z" fill="#FAFAFA"/>
<path d="M77.0132 22.5029H75.3098V24.2064H77.0132V22.5029Z" fill="#FAFAFA"/>
<path d="M82.1236 22.5029H80.4201V24.2064H82.1236V22.5029Z" fill="#FAFAFA"/>
<path d="M12.2822 24.2064H10.5788V25.9098H12.2822V24.2064Z" fill="#FAFAFA"/>
<path d="M13.9857 24.2064H12.2822V25.9098H13.9857V24.2064Z" fill="#FAFAFA"/>
<path d="M15.6891 24.2064H13.9857V25.9098H15.6891V24.2064Z" fill="#FAFAFA"/>
<path d="M17.3926 24.2064H15.6891V25.9098H17.3926V24.2064Z" fill="#FAFAFA"/>
<path d="M19.096 24.2064H17.3926V25.9098H19.096V24.2064Z" fill="#FAFAFA"/>
<path d="M20.7995 24.2064H19.096V25.9098H20.7995V24.2064Z" fill="#FAFAFA"/>
<path d="M24.2064 24.2064H22.5029V25.9098H24.2064V24.2064Z" fill="#FAFAFA"/>
<path d="M25.9098 24.2064H24.2064V25.9098H25.9098V24.2064Z" fill="#FAFAFA"/>
<path d="M29.3167 24.2064H27.6133V25.9098H29.3167V24.2064Z" fill="#FAFAFA"/>
<path d="M31.0201 24.2064H29.3167V25.9098H31.0201V24.2064Z" fill="#FAFAFA"/>
<path d="M34.427 24.2064H32.7236V25.9098H34.427V24.2064Z" fill="#FAFAFA"/>
<path d="M36.1305 24.2064H34.427V25.9098H36.1305V24.2064Z" fill="#FAFAFA"/>
<path d="M37.8339 24.2064H36.1305V25.9098H37.8339V24.2064Z" fill="#FAFAFA"/>
<path d="M39.5374 24.2064H37.8339V25.9098H39.5374V24.2064Z" fill="#FAFAFA"/>
<path d="M41.2408 24.2064H39.5374V25.9098H41.2408V24.2064Z" fill="#FAFAFA"/>
<path d="M42.9443 24.2064H41.2408V25.9098H42.9443V24.2064Z" fill="#FAFAFA"/>
<path d="M44.6477 24.2064H42.9443V25.9098H44.6477V24.2064Z" fill="#FAFAFA"/>
<path d="M46.3512 24.2064H44.6477V25.9098H46.3512V24.2064Z" fill="#FAFAFA"/>
<path d="M49.7581 24.2064H48.0546V25.9098H49.7581V24.2064Z" fill="#FAFAFA"/>
<path d="M51.4615 24.2064H49.7581V25.9098H51.4615V24.2064Z" fill="#FAFAFA"/>
<path d="M56.5719 24.2064H54.8684V25.9098H56.5719V24.2064Z" fill="#FAFAFA"/>
<path d="M59.9788 24.2064H58.2753V25.9098H59.9788V24.2064Z" fill="#FAFAFA"/>
<path d="M63.3857 24.2064H61.6822V25.9098H63.3857V24.2064Z" fill="#FAFAFA"/>
<path d="M65.0891 24.2064H63.3857V25.9098H65.0891V24.2064Z" fill="#FAFAFA"/>
<path d="M68.496 24.2064H66.7926V25.9098H68.496V24.2064Z" fill="#FAFAFA"/>
<path d="M70.1995 24.2064H68.496V25.9098H70.1995V24.2064Z" fill="#FAFAFA"/>
<path d="M77.0132 24.2064H75.3098V25.9098H77.0132V24.2064Z" fill="#FAFAFA"/>
<path d="M82.1236 24.2064H80.4201V25.9098H82.1236V24.2064Z" fill="#FAFAFA"/>
<path d="M8.87532 25.9098H7.17188V27.6133H8.87532V25.9098Z" fill="#FAFAFA"/>
<path d="M12.2822 25.9098H10.5788V27.6133H12.2822V25.9098Z" fill="#FAFAFA"/>
<path d="M15.6891 25.9098H13.9857V27.6133H15.6891V25.9098Z" fill="#FAFAFA"/>
<path d="M24.2064 25.9098H22.5029V27.6133H24.2064V25.9098Z" fill="#FAFAFA"/>
<path d="M25.9098 25.9098H24.2064V27.6133H25.9098V25.9098Z" fill="#FAFAFA"/>
<path d="M31.0201 25.9098H29.3167V27.6133H31.0201V25.9098Z" fill="#FAFAFA"/>
<path d="M34.427 25.9098H32.7236V27.6133H34.427V25.9098Z" fill="#FAFAFA"/>
<path d="M37.8339 25.9098H36.1305V27.6133H37.8339V25.9098Z" fill="#FAFAFA"/>
<path d="M44.6477 25.9098H42.9443V27.6133H44.6477V25.9098Z" fill="#FAFAFA"/>
<path d="M46.3512 25.9098H44.6477V27.6133H46.3512V25.9098Z" fill="#FAFAFA"/>
<path d="M51.4615 25.9098H49.7581V27.6133H51.4615V25.9098Z" fill="#FAFAFA"/>
<path d="M53.165 25.9098H51.4615V27.6133H53.165V25.9098Z" fill="#FAFAFA"/>
<path d="M54.8684 25.9098H53.165V27.6133H54.8684V25.9098Z" fill="#FAFAFA"/>
<path d="M65.0891 25.9098H63.3857V27.6133H65.0891V25.9098Z" fill="#FAFAFA"/>
<path d="M68.496 25.9098H66.7926V27.6133H68.496V25.9098Z" fill="#FAFAFA"/>
<path d="M71.9029 25.9098H70.1995V27.6133H71.9029V25.9098Z" fill="#FAFAFA"/>
<path d="M73.6064 25.9098H71.9029V27.6133H73.6064V25.9098Z" fill="#FAFAFA"/>
<path d="M75.3098 25.9098H73.6064V27.6133H75.3098V25.9098Z" fill="#FAFAFA"/>
<path d="M77.0132 25.9098H75.3098V27.6133H77.0132V25.9098Z" fill="#FAFAFA"/>
<path d="M78.7167 25.9098H77.0132V27.6133H78.7167V25.9098Z" fill="#FAFAFA"/>
<path d="M80.4201 25.9098H78.7167V27.6133H80.4201V25.9098Z" fill="#FAFAFA"/>
<path d="M83.827 25.9098H82.1236V27.6133H83.827V25.9098Z" fill="#FAFAFA"/>
<path d="M12.2822 27.6133H10.5788V29.3167H12.2822V27.6133Z" fill="#FAFAFA"/>
<path d="M15.6891 27.6133H13.9857V29.3167H15.6891V27.6133Z" fill="#FAFAFA"/>
<path d="M19.096 27.6133H17.3926V29.3167H19.096V27.6133Z" fill="#FAFAFA"/>
<path d="M24.2064 27.6133H22.5029V29.3167H24.2064V27.6133Z" fill="#FAFAFA"/>
<path d="M25.9098 27.6133H24.2064V29.3167H25.9098V27.6133Z" fill="#FAFAFA"/>
<path d="M29.3167 27.6133H27.6133V29.3167H29.3167V27.6133Z" fill="#FAFAFA"/>
<path d="M31.0201 27.6133H29.3167V29.3167H31.0201V27.6133Z" fill="#FAFAFA"/>
<path d="M32.7236 27.6133H31.0201V29.3167H32.7236V27.6133Z" fill="#FAFAFA"/>
<path d="M37.8339 27.6133H36.1305V29.3167H37.8339V27.6133Z" fill="#FAFAFA"/>
<path d="M41.2408 27.6133H39.5374V29.3167H41.2408V27.6133Z" fill="#FAFAFA"/>
<path d="M48.0546 27.6133H46.3512V29.3167H48.0546V27.6133Z" fill="#FAFAFA"/>
<path d="M49.7581 27.6133H48.0546V29.3167H49.7581V27.6133Z" fill="#FAFAFA"/>
<path d="M54.8684 27.6133H53.165V29.3167H54.8684V27.6133Z" fill="#FAFAFA"/>
<path d="M56.5719 27.6133H54.8684V29.3167H56.5719V27.6133Z" fill="#FAFAFA"/>
<path d="M58.2753 27.6133H56.5719V29.3167H58.2753V27.6133Z" fill="#FAFAFA"/>
<path d="M61.6822 27.6133H59.9788V29.3167H61.6822V27.6133Z" fill="#FAFAFA"/>
<path d="M63.3857 27.6133H61.6822V29.3167H63.3857V27.6133Z" fill="#FAFAFA"/>
<path d="M65.0891 27.6133H63.3857V29.3167H65.0891V27.6133Z" fill="#FAFAFA"/>
<path d="M66.7926 27.6133H65.0891V29.3167H66.7926V27.6133Z" fill="#FAFAFA"/>
<path d="M68.496 27.6133H66.7926V29.3167H68.496V27.6133Z" fill="#FAFAFA"/>
<path d="M78.7167 27.6133H77.0132V29.3167H78.7167V27.6133Z" fill="#FAFAFA"/>
<path d="M82.1236 27.6133H80.4201V29.3167H82.1236V27.6133Z" fill="#FAFAFA"/>
<path d="M83.827 27.6133H82.1236V29.3167H83.827V27.6133Z" fill="#FAFAFA"/>
<path d="M8.87532 29.3167H7.17188V31.0201H8.87532V29.3167Z" fill="#FAFAFA"/>
<path d="M15.6891 29.3167H13.9857V31.0201H15.6891V29.3167Z" fill="#FAFAFA"/>
<path d="M29.3167 29.3167H27.6133V31.0201H29.3167V29.3167Z" fill="#FAFAFA"/>
<path d="M32.7236 29.3167H31.0201V31.0201H32.7236V29.3167Z" fill="#FAFAFA"/>
<path d="M34.427 29.3167H32.7236V31.0201H34.427V29.3167Z" fill="#FAFAFA"/>
<path d="M36.1305 29.3167H34.427V31.0201H36.1305V29.3167Z" fill="#FAFAFA"/>
<path d="M37.8339 29.3167H36.1305V31.0201H37.8339V29.3167Z" fill="#FAFAFA"/>
<path d="M39.5374 29.3167H37.8339V31.0201H39.5374V29.3167Z" fill="#FAFAFA"/>
<path d="M44.6477 29.3167H42.9443V31.0201H44.6477V29.3167Z" fill="#FAFAFA"/>
<path d="M46.3512 29.3167H44.6477V31.0201H46.3512V29.3167Z" fill="#FAFAFA"/>
<path d="M48.0546 29.3167H46.3512V31.0201H48.0546V29.3167Z" fill="#FAFAFA"/>
<path d="M51.4615 29.3167H49.7581V31.0201H51.4615V29.3167Z" fill="#FAFAFA"/>
<path d="M54.8684 29.3167H53.165V31.0201H54.8684V29.3167Z" fill="#FAFAFA"/>
<path d="M56.5719 29.3167H54.8684V31.0201H56.5719V29.3167Z" fill="#FAFAFA"/>
<path d="M61.6822 29.3167H59.9788V31.0201H61.6822V29.3167Z" fill="#FAFAFA"/>
<path d="M65.0891 29.3167H63.3857V31.0201H65.0891V29.3167Z" fill="#FAFAFA"/>
<path d="M66.7926 29.3167H65.0891V31.0201H66.7926V29.3167Z" fill="#FAFAFA"/>
<path d="M68.496 29.3167H66.7926V31.0201H68.496V29.3167Z" fill="#FAFAFA"/>
<path d="M70.1995 29.3167H68.496V31.0201H70.1995V29.3167Z" fill="#FAFAFA"/>
<path d="M73.6064 29.3167H71.9029V31.0201H73.6064V29.3167Z" fill="#FAFAFA"/>
<path d="M75.3098 29.3167H73.6064V31.0201H75.3098V29.3167Z" fill="#FAFAFA"/>
<path d="M77.0132 29.3167H75.3098V31.0201H77.0132V29.3167Z" fill="#FAFAFA"/>
<path d="M78.7167 29.3167H77.0132V31.0201H78.7167V29.3167Z" fill="#FAFAFA"/>
<path d="M80.4201 29.3167H78.7167V31.0201H80.4201V29.3167Z" fill="#FAFAFA"/>
<path d="M82.1236 29.3167H80.4201V31.0201H82.1236V29.3167Z" fill="#FAFAFA"/>
<path d="M8.87532 31.0201H7.17188V32.7236H8.87532V31.0201Z" fill="#FAFAFA"/>
<path d="M10.5788 31.0201H8.87532V32.7236H10.5788V31.0201Z" fill="#FAFAFA"/>
<path d="M13.9857 31.0201H12.2822V32.7236H13.9857V31.0201Z" fill="#FAFAFA"/>
<path d="M15.6891 31.0201H13.9857V32.7236H15.6891V31.0201Z" fill="#FAFAFA"/>
<path d="M19.096 31.0201H17.3926V32.7236H19.096V31.0201Z" fill="#FAFAFA"/>
<path d="M20.7995 31.0201H19.096V32.7236H20.7995V31.0201Z" fill="#FAFAFA"/>
<path d="M22.5029 31.0201H20.7995V32.7236H22.5029V31.0201Z" fill="#FAFAFA"/>
<path d="M25.9098 31.0201H24.2064V32.7236H25.9098V31.0201Z" fill="#FAFAFA"/>
<path d="M27.6133 31.0201H25.9098V32.7236H27.6133V31.0201Z" fill="#FAFAFA"/>
<path d="M31.0201 31.0201H29.3167V32.7236H31.0201V31.0201Z" fill="#FAFAFA"/>
<path d="M32.7236 31.0201H31.0201V32.7236H32.7236V31.0201Z" fill="#FAFAFA"/>
<path d="M39.5374 31.0201H37.8339V32.7236H39.5374V31.0201Z" fill="#FAFAFA"/>
<path d="M42.9443 31.0201H41.2408V32.7236H42.9443V31.0201Z" fill="#FAFAFA"/>
<path d="M44.6477 31.0201H42.9443V32.7236H44.6477V31.0201Z" fill="#FAFAFA"/>
<path d="M48.0546 31.0201H46.3512V32.7236H48.0546V31.0201Z" fill="#FAFAFA"/>
<path d="M53.165 31.0201H51.4615V32.7236H53.165V31.0201Z" fill="#FAFAFA"/>
<path d="M56.5719 31.0201H54.8684V32.7236H56.5719V31.0201Z" fill="#FAFAFA"/>
<path d="M58.2753 31.0201H56.5719V32.7236H58.2753V31.0201Z" fill="#FAFAFA"/>
<path d="M61.6822 31.0201H59.9788V32.7236H61.6822V31.0201Z" fill="#FAFAFA"/>
<path d="M68.496 31.0201H66.7926V32.7236H68.496V31.0201Z" fill="#FAFAFA"/>
<path d="M71.9029 31.0201H70.1995V32.7236H71.9029V31.0201Z" fill="#FAFAFA"/>
<path d="M83.827 31.0201H82.1236V32.7236H83.827V31.0201Z" fill="#FAFAFA"/>
<path d="M8.87532 32.7236H7.17188V34.427H8.87532V32.7236Z" fill="#FAFAFA"/>
<path d="M13.9857 32.7236H12.2822V34.427H13.9857V32.7236Z" fill="#FAFAFA"/>
<path d="M24.2064 32.7236H22.5029V34.427H24.2064V32.7236Z" fill="#FAFAFA"/>
<path d="M29.3167 32.7236H27.6133V34.427H29.3167V32.7236Z" fill="#FAFAFA"/>
<path d="M34.427 32.7236H32.7236V34.427H34.427V32.7236Z" fill="#FAFAFA"/>
<path d="M39.5374 32.7236H37.8339V34.427H39.5374V32.7236Z" fill="#FAFAFA"/>
<path d="M49.7581 32.7236H48.0546V34.427H49.7581V32.7236Z" fill="#FAFAFA"/>
<path d="M54.8684 32.7236H53.165V34.427H54.8684V32.7236Z" fill="#FAFAFA"/>
<path d="M56.5719 32.7236H54.8684V34.427H56.5719V32.7236Z" fill="#FAFAFA"/>
<path d="M58.2753 32.7236H56.5719V34.427H58.2753V32.7236Z" fill="#FAFAFA"/>
<path d="M59.9788 32.7236H58.2753V34.427H59.9788V32.7236Z" fill="#FAFAFA"/>
<path d="M61.6822 32.7236H59.9788V34.427H61.6822V32.7236Z" fill="#FAFAFA"/>
<path d="M65.0891 32.7236H63.3857V34.427H65.0891V32.7236Z" fill="#FAFAFA"/>
<path d="M66.7926 32.7236H65.0891V34.427H66.7926V32.7236Z" fill="#FAFAFA"/>
<path d="M71.9029 32.7236H70.1995V34.427H71.9029V32.7236Z" fill="#FAFAFA"/>
<path d="M75.3098 32.7236H73.6064V34.427H75.3098V32.7236Z" fill="#FAFAFA"/>
<path d="M78.7167 32.7236H77.0132V34.427H78.7167V32.7236Z" fill="#FAFAFA"/>
<path d="M82.1236 32.7236H80.4201V34.427H82.1236V32.7236Z" fill="#FAFAFA"/>
<path d="M83.827 32.7236H82.1236V34.427H83.827V32.7236Z" fill="#FAFAFA"/>
<path d="M13.9857 34.427H12.2822V36.1305H13.9857V34.427Z" fill="#FAFAFA"/>
<path d="M15.6891 34.427H13.9857V36.1305H15.6891V34.427Z" fill="#FAFAFA"/>
<path d="M19.096 34.427H17.3926V36.1305H19.096V34.427Z" fill="#FAFAFA"/>
<path d="M20.7995 34.427H19.096V36.1305H20.7995V34.427Z" fill="#FAFAFA"/>
<path d="M24.2064 34.427H22.5029V36.1305H24.2064V34.427Z" fill="#FAFAFA"/>
<path d="M25.9098 34.427H24.2064V36.1305H25.9098V34.427Z" fill="#FAFAFA"/>
<path d="M29.3167 34.427H27.6133V36.1305H29.3167V34.427Z" fill="#FAFAFA"/>
<path d="M32.7236 34.427H31.0201V36.1305H32.7236V34.427Z" fill="#FAFAFA"/>
<path d="M34.427 34.427H32.7236V36.1305H34.427V34.427Z" fill="#FAFAFA"/>
<path d="M36.1305 34.427H34.427V36.1305H36.1305V34.427Z" fill="#FAFAFA"/>
<path d="M39.5374 34.427H37.8339V36.1305H39.5374V34.427Z" fill="#FAFAFA"/>
<path d="M41.2408 34.427H39.5374V36.1305H41.2408V34.427Z" fill="#FAFAFA"/>
<path d="M44.6477 34.427H42.9443V36.1305H44.6477V34.427Z" fill="#FAFAFA"/>
<path d="M46.3512 34.427H44.6477V36.1305H46.3512V34.427Z" fill="#FAFAFA"/>
<path d="M49.7581 34.427H48.0546V36.1305H49.7581V34.427Z" fill="#FAFAFA"/>
<path d="M53.165 34.427H51.4615V36.1305H53.165V34.427Z" fill="#FAFAFA"/>
<path d="M56.5719 34.427H54.8684V36.1305H56.5719V34.427Z" fill="#FAFAFA"/>
<path d="M59.9788 34.427H58.2753V36.1305H59.9788V34.427Z" fill="#FAFAFA"/>
<path d="M63.3857 34.427H61.6822V36.1305H63.3857V34.427Z" fill="#FAFAFA"/>
<path d="M65.0891 34.427H63.3857V36.1305H65.0891V34.427Z" fill="#FAFAFA"/>
<path d="M66.7926 34.427H65.0891V36.1305H66.7926V34.427Z" fill="#FAFAFA"/>
<path d="M70.1995 34.427H68.496V36.1305H70.1995V34.427Z" fill="#FAFAFA"/>
<path d="M71.9029 34.427H70.1995V36.1305H71.9029V34.427Z" fill="#FAFAFA"/>
<path d="M78.7167 34.427H77.0132V36.1305H78.7167V34.427Z" fill="#FAFAFA"/>
<path d="M80.4201 34.427H78.7167V36.1305H80.4201V34.427Z" fill="#FAFAFA"/>
<path d="M83.827 34.427H82.1236V36.1305H83.827V34.427Z" fill="#FAFAFA"/>
<path d="M10.5788 36.1305H8.87532V37.8339H10.5788V36.1305Z" fill="#FAFAFA"/>
<path d="M15.6891 36.1305H13.9857V37.8339H15.6891V36.1305Z" fill="#FAFAFA"/>
<path d="M20.7995 36.1305H19.096V37.8339H20.7995V36.1305Z" fill="#FAFAFA"/>
<path d="M24.2064 36.1305H22.5029V37.8339H24.2064V36.1305Z" fill="#FAFAFA"/>
<path d="M29.3167 36.1305H27.6133V37.8339H29.3167V36.1305Z" fill="#FAFAFA"/>
<path d="M31.0201 36.1305H29.3167V37.8339H31.0201V36.1305Z" fill="#FAFAFA"/>
<path d="M32.7236 36.1305H31.0201V37.8339H32.7236V36.1305Z" fill="#FAFAFA"/>
<path d="M44.6477 36.1305H42.9443V37.8339H44.6477V36.1305Z" fill="#FAFAFA"/>
<path d="M46.3512 36.1305H44.6477V37.8339H46.3512V36.1305Z" fill="#FAFAFA"/>
<path d="M49.7581 36.1305H48.0546V37.8339H49.7581V36.1305Z" fill="#FAFAFA"/>
<path d="M54.8684 36.1305H53.165V37.8339H54.8684V36.1305Z" fill="#FAFAFA"/>
<path d="M58.2753 36.1305H56.5719V37.8339H58.2753V36.1305Z" fill="#FAFAFA"/>
<path d="M59.9788 36.1305H58.2753V37.8339H59.9788V36.1305Z" fill="#FAFAFA"/>
<path d="M63.3857 36.1305H61.6822V37.8339H63.3857V36.1305Z" fill="#FAFAFA"/>
<path d="M70.1995 36.1305H68.496V37.8339H70.1995V36.1305Z" fill="#FAFAFA"/>
<path d="M77.0132 36.1305H75.3098V37.8339H77.0132V36.1305Z" fill="#FAFAFA"/>
<path d="M80.4201 36.1305H78.7167V37.8339H80.4201V36.1305Z" fill="#FAFAFA"/>
<path d="M82.1236 36.1305H80.4201V37.8339H82.1236V36.1305Z" fill="#FAFAFA"/>
<path d="M83.827 36.1305H82.1236V37.8339H83.827V36.1305Z" fill="#FAFAFA"/>
<path d="M10.5788 37.8339H8.87532V39.5374H10.5788V37.8339Z" fill="#FAFAFA"/>
<path d="M12.2822 37.8339H10.5788V39.5374H12.2822V37.8339Z" fill="#FAFAFA"/>
<path d="M13.9857 37.8339H12.2822V39.5374H13.9857V37.8339Z" fill="#FAFAFA"/>
<path d="M17.3926 37.8339H15.6891V39.5374H17.3926V37.8339Z" fill="#FAFAFA"/>
<path d="M19.096 37.8339H17.3926V39.5374H19.096V37.8339Z" fill="#FAFAFA"/>
<path d="M22.5029 37.8339H20.7995V39.5374H22.5029V37.8339Z" fill="#FAFAFA"/>
<path d="M25.9098 37.8339H24.2064V39.5374H25.9098V37.8339Z" fill="#FAFAFA"/>
<path d="M27.6133 37.8339H25.9098V39.5374H27.6133V37.8339Z" fill="#FAFAFA"/>
<path d="M29.3167 37.8339H27.6133V39.5374H29.3167V37.8339Z" fill="#FAFAFA"/>
<path d="M32.7236 37.8339H31.0201V39.5374H32.7236V37.8339Z" fill="#FAFAFA"/>
<path d="M34.427 37.8339H32.7236V39.5374H34.427V37.8339Z" fill="#FAFAFA"/>
<path d="M37.8339 37.8339H36.1305V39.5374H37.8339V37.8339Z" fill="#FAFAFA"/>
<path d="M41.2408 37.8339H39.5374V39.5374H41.2408V37.8339Z" fill="#FAFAFA"/>
<path d="M44.6477 37.8339H42.9443V39.5374H44.6477V37.8339Z" fill="#FAFAFA"/>
<path d="M46.3512 37.8339H44.6477V39.5374H46.3512V37.8339Z" fill="#FAFAFA"/>
<path d="M48.0546 37.8339H46.3512V39.5374H48.0546V37.8339Z" fill="#FAFAFA"/>
<path d="M51.4615 37.8339H49.7581V39.5374H51.4615V37.8339Z" fill="#FAFAFA"/>
<path d="M53.165 37.8339H51.4615V39.5374H53.165V37.8339Z" fill="#FAFAFA"/>
<path d="M54.8684 37.8339H53.165V39.5374H54.8684V37.8339Z" fill="#FAFAFA"/>
<path d="M56.5719 37.8339H54.8684V39.5374H56.5719V37.8339Z" fill="#FAFAFA"/>
<path d="M58.2753 37.8339H56.5719V39.5374H58.2753V37.8339Z" fill="#FAFAFA"/>
<path d="M63.3857 37.8339H61.6822V39.5374H63.3857V37.8339Z" fill="#FAFAFA"/>
<path d="M65.0891 37.8339H63.3857V39.5374H65.0891V37.8339Z" fill="#FAFAFA"/>
<path d="M70.1995 37.8339H68.496V39.5374H70.1995V37.8339Z" fill="#FAFAFA"/>
<path d="M71.9029 37.8339H70.1995V39.5374H71.9029V37.8339Z" fill="#FAFAFA"/>
<path d="M75.3098 37.8339H73.6064V39.5374H75.3098V37.8339Z" fill="#FAFAFA"/>
<path d="M80.4201 37.8339H78.7167V39.5374H80.4201V37.8339Z" fill="#FAFAFA"/>
<path d="M83.827 37.8339H82.1236V39.5374H83.827V37.8339Z" fill="#FAFAFA"/>
<path d="M13.9857 39.5374H12.2822V41.2408H13.9857V39.5374Z" fill="#FAFAFA"/>
<path d="M17.3926 39.5374H15.6891V41.2408H17.3926V39.5374Z" fill="#FAFAFA"/>
<path d="M22.5029 39.5374H20.7995V41.2408H22.5029V39.5374Z" fill="#FAFAFA"/>
<path d="M25.9098 39.5374H24.2064V41.2408H25.9098V39.5374Z" fill="#FAFAFA"/>
<path d="M31.0201 39.5374H29.3167V41.2408H31.0201V39.5374Z" fill="#FAFAFA"/>
<path d="M32.7236 39.5374H31.0201V41.2408H32.7236V39.5374Z" fill="#FAFAFA"/>
<path d="M36.1305 39.5374H34.427V41.2408H36.1305V39.5374Z" fill="#FAFAFA"/>
<path d="M37.8339 39.5374H36.1305V41.2408H37.8339V39.5374Z" fill="#FAFAFA"/>
<path d="M39.5374 39.5374H37.8339V41.2408H39.5374V39.5374Z" fill="#FAFAFA"/>
<path d="M41.2408 39.5374H39.5374V41.2408H41.2408V39.5374Z" fill="#FAFAFA"/>
<path d="M51.4615 39.5374H49.7581V41.2408H51.4615V39.5374Z" fill="#FAFAFA"/>
<path d="M53.165 39.5374H51.4615V41.2408H53.165V39.5374Z" fill="#FAFAFA"/>
<path d="M56.5719 39.5374H54.8684V41.2408H56.5719V39.5374Z" fill="#FAFAFA"/>
<path d="M59.9788 39.5374H58.2753V41.2408H59.9788V39.5374Z" fill="#FAFAFA"/>
<path d="M63.3857 39.5374H61.6822V41.2408H63.3857V39.5374Z" fill="#FAFAFA"/>
<path d="M68.496 39.5374H66.7926V41.2408H68.496V39.5374Z" fill="#FAFAFA"/>
<path d="M73.6064 39.5374H71.9029V41.2408H73.6064V39.5374Z" fill="#FAFAFA"/>
<path d="M77.0132 39.5374H75.3098V41.2408H77.0132V39.5374Z" fill="#FAFAFA"/>
<path d="M80.4201 39.5374H78.7167V41.2408H80.4201V39.5374Z" fill="#FAFAFA"/>
<path d="M82.1236 39.5374H80.4201V41.2408H82.1236V39.5374Z" fill="#FAFAFA"/>
<path d="M83.827 39.5374H82.1236V41.2408H83.827V39.5374Z" fill="#FAFAFA"/>
<path d="M10.5788 41.2408H8.87532V42.9443H10.5788V41.2408Z" fill="#FAFAFA"/>
<path d="M15.6891 41.2408H13.9857V42.9443H15.6891V41.2408Z" fill="#FAFAFA"/>
<path d="M17.3926 41.2408H15.6891V42.9443H17.3926V41.2408Z" fill="#FAFAFA"/>
<path d="M19.096 41.2408H17.3926V42.9443H19.096V41.2408Z" fill="#FAFAFA"/>
<path d="M20.7995 41.2408H19.096V42.9443H20.7995V41.2408Z" fill="#FAFAFA"/>
<path d="M22.5029 41.2408H20.7995V42.9443H22.5029V41.2408Z" fill="#FAFAFA"/>
<path d="M32.7236 41.2408H31.0201V42.9443H32.7236V41.2408Z" fill="#FAFAFA"/>
<path d="M36.1305 41.2408H34.427V42.9443H36.1305V41.2408Z" fill="#FAFAFA"/>
<path d="M37.8339 41.2408H36.1305V42.9443H37.8339V41.2408Z" fill="#FAFAFA"/>
<path d="M41.2408 41.2408H39.5374V42.9443H41.2408V41.2408Z" fill="#FAFAFA"/>
<path d="M42.9443 41.2408H41.2408V42.9443H42.9443V41.2408Z" fill="#FAFAFA"/>
<path d="M44.6477 41.2408H42.9443V42.9443H44.6477V41.2408Z" fill="#FAFAFA"/>
<path d="M46.3512 41.2408H44.6477V42.9443H46.3512V41.2408Z" fill="#FAFAFA"/>
<path d="M48.0546 41.2408H46.3512V42.9443H48.0546V41.2408Z" fill="#FAFAFA"/>
<path d="M49.7581 41.2408H48.0546V42.9443H49.7581V41.2408Z" fill="#FAFAFA"/>
<path d="M51.4615 41.2408H49.7581V42.9443H51.4615V41.2408Z" fill="#FAFAFA"/>
<path d="M53.165 41.2408H51.4615V42.9443H53.165V41.2408Z" fill="#FAFAFA"/>
<path d="M54.8684 41.2408H53.165V42.9443H54.8684V41.2408Z" fill="#FAFAFA"/>
<path d="M56.5719 41.2408H54.8684V42.9443H56.5719V41.2408Z" fill="#FAFAFA"/>
<path d="M58.2753 41.2408H56.5719V42.9443H58.2753V41.2408Z" fill="#FAFAFA"/>
<path d="M61.6822 41.2408H59.9788V42.9443H61.6822V41.2408Z" fill="#FAFAFA"/>
<path d="M63.3857 41.2408H61.6822V42.9443H63.3857V41.2408Z" fill="#FAFAFA"/>
<path d="M65.0891 41.2408H63.3857V42.9443H65.0891V41.2408Z" fill="#FAFAFA"/>
<path d="M66.7926 41.2408H65.0891V42.9443H66.7926V41.2408Z" fill="#FAFAFA"/>
<path d="M70.1995 41.2408H68.496V42.9443H70.1995V41.2408Z" fill="#FAFAFA"/>
<path d="M71.9029 41.2408H70.1995V42.9443H71.9029V41.2408Z" fill="#FAFAFA"/>
<path d="M73.6064 41.2408H71.9029V42.9443H73.6064V41.2408Z" fill="#FAFAFA"/>
<path d="M75.3098 41.2408H73.6064V42.9443H75.3098V41.2408Z" fill="#FAFAFA"/>
<path d="M77.0132 41.2408H75.3098V42.9443H77.0132V41.2408Z" fill="#FAFAFA"/>
<path d="M78.7167 41.2408H77.0132V42.9443H78.7167V41.2408Z" fill="#FAFAFA"/>
<path d="M80.4201 41.2408H78.7167V42.9443H80.4201V41.2408Z" fill="#FAFAFA"/>
<path d="M10.5788 42.9443H8.87532V44.6477H10.5788V42.9443Z" fill="#FAFAFA"/>
<path d="M12.2822 42.9443H10.5788V44.6477H12.2822V42.9443Z" fill="#FAFAFA"/>
<path d="M15.6891 42.9443H13.9857V44.6477H15.6891V42.9443Z" fill="#FAFAFA"/>
<path d="M22.5029 42.9443H20.7995V44.6477H22.5029V42.9443Z" fill="#FAFAFA"/>
<path d="M25.9098 42.9443H24.2064V44.6477H25.9098V42.9443Z" fill="#FAFAFA"/>
<path d="M27.6133 42.9443H25.9098V44.6477H27.6133V42.9443Z" fill="#FAFAFA"/>
<path d="M31.0201 42.9443H29.3167V44.6477H31.0201V42.9443Z" fill="#FAFAFA"/>
<path d="M32.7236 42.9443H31.0201V44.6477H32.7236V42.9443Z" fill="#FAFAFA"/>
<path d="M37.8339 42.9443H36.1305V44.6477H37.8339V42.9443Z" fill="#FAFAFA"/>
<path d="M42.9443 42.9443H41.2408V44.6477H42.9443V42.9443Z" fill="#FAFAFA"/>
<path d="M49.7581 42.9443H48.0546V44.6477H49.7581V42.9443Z" fill="#FAFAFA"/>
<path d="M56.5719 42.9443H54.8684V44.6477H56.5719V42.9443Z" fill="#FAFAFA"/>
<path d="M59.9788 42.9443H58.2753V44.6477H59.9788V42.9443Z" fill="#FAFAFA"/>
<path d="M63.3857 42.9443H61.6822V44.6477H63.3857V42.9443Z" fill="#FAFAFA"/>
<path d="M66.7926 42.9443H65.0891V44.6477H66.7926V42.9443Z" fill="#FAFAFA"/>
<path d="M70.1995 42.9443H68.496V44.6477H70.1995V42.9443Z" fill="#FAFAFA"/>
<path d="M77.0132 42.9443H75.3098V44.6477H77.0132V42.9443Z" fill="#FAFAFA"/>
<path d="M78.7167 42.9443H77.0132V44.6477H78.7167V42.9443Z" fill="#FAFAFA"/>
<path d="M80.4201 42.9443H78.7167V44.6477H80.4201V42.9443Z" fill="#FAFAFA"/>
<path d="M8.87532 44.6477H7.17188V46.3512H8.87532V44.6477Z" fill="#FAFAFA"/>
<path d="M13.9857 44.6477H12.2822V46.3512H13.9857V44.6477Z" fill="#FAFAFA"/>
<path d="M15.6891 44.6477H13.9857V46.3512H15.6891V44.6477Z" fill="#FAFAFA"/>
<path d="M19.096 44.6477H17.3926V46.3512H19.096V44.6477Z" fill="#FAFAFA"/>
<path d="M22.5029 44.6477H20.7995V46.3512H22.5029V44.6477Z" fill="#FAFAFA"/>
<path d="M27.6133 44.6477H25.9098V46.3512H27.6133V44.6477Z" fill="#FAFAFA"/>
<path d="M29.3167 44.6477H27.6133V46.3512H29.3167V44.6477Z" fill="#FAFAFA"/>
<path d="M32.7236 44.6477H31.0201V46.3512H32.7236V44.6477Z" fill="#FAFAFA"/>
<path d="M34.427 44.6477H32.7236V46.3512H34.427V44.6477Z" fill="#FAFAFA"/>
<path d="M36.1305 44.6477H34.427V46.3512H36.1305V44.6477Z" fill="#FAFAFA"/>
<path d="M37.8339 44.6477H36.1305V46.3512H37.8339V44.6477Z" fill="#FAFAFA"/>
<path d="M41.2408 44.6477H39.5374V46.3512H41.2408V44.6477Z" fill="#FAFAFA"/>
<path d="M42.9443 44.6477H41.2408V46.3512H42.9443V44.6477Z" fill="#FAFAFA"/>
<path d="M46.3512 44.6477H44.6477V46.3512H46.3512V44.6477Z" fill="#FAFAFA"/>
<path d="M49.7581 44.6477H48.0546V46.3512H49.7581V44.6477Z" fill="#FAFAFA"/>
<path d="M51.4615 44.6477H49.7581V46.3512H51.4615V44.6477Z" fill="#FAFAFA"/>
<path d="M53.165 44.6477H51.4615V46.3512H53.165V44.6477Z" fill="#FAFAFA"/>
<path d="M54.8684 44.6477H53.165V46.3512H54.8684V44.6477Z" fill="#FAFAFA"/>
<path d="M56.5719 44.6477H54.8684V46.3512H56.5719V44.6477Z" fill="#FAFAFA"/>
<path d="M58.2753 44.6477H56.5719V46.3512H58.2753V44.6477Z" fill="#FAFAFA"/>
<path d="M61.6822 44.6477H59.9788V46.3512H61.6822V44.6477Z" fill="#FAFAFA"/>
<path d="M63.3857 44.6477H61.6822V46.3512H63.3857V44.6477Z" fill="#FAFAFA"/>
<path d="M66.7926 44.6477H65.0891V46.3512H66.7926V44.6477Z" fill="#FAFAFA"/>
<path d="M70.1995 44.6477H68.496V46.3512H70.1995V44.6477Z" fill="#FAFAFA"/>
<path d="M73.6064 44.6477H71.9029V46.3512H73.6064V44.6477Z" fill="#FAFAFA"/>
<path d="M77.0132 44.6477H75.3098V46.3512H77.0132V44.6477Z" fill="#FAFAFA"/>
<path d="M12.2822 46.3512H10.5788V48.0546H12.2822V46.3512Z" fill="#FAFAFA"/>
<path d="M13.9857 46.3512H12.2822V48.0546H13.9857V46.3512Z" fill="#FAFAFA"/>
<path d="M15.6891 46.3512H13.9857V48.0546H15.6891V46.3512Z" fill="#FAFAFA"/>
<path d="M22.5029 46.3512H20.7995V48.0546H22.5029V46.3512Z" fill="#FAFAFA"/>
<path d="M24.2064 46.3512H22.5029V48.0546H24.2064V46.3512Z" fill="#FAFAFA"/>
<path d="M27.6133 46.3512H25.9098V48.0546H27.6133V46.3512Z" fill="#FAFAFA"/>
<path d="M31.0201 46.3512H29.3167V48.0546H31.0201V46.3512Z" fill="#FAFAFA"/>
<path d="M34.427 46.3512H32.7236V48.0546H34.427V46.3512Z" fill="#FAFAFA"/>
<path d="M36.1305 46.3512H34.427V48.0546H36.1305V46.3512Z" fill="#FAFAFA"/>
<path d="M37.8339 46.3512H36.1305V48.0546H37.8339V46.3512Z" fill="#FAFAFA"/>
<path d="M39.5374 46.3512H37.8339V48.0546H39.5374V46.3512Z" fill="#FAFAFA"/>
<path d="M42.9443 46.3512H41.2408V48.0546H42.9443V46.3512Z" fill="#FAFAFA"/>
<path d="M49.7581 46.3512H48.0546V48.0546H49.7581V46.3512Z" fill="#FAFAFA"/>
<path d="M51.4615 46.3512H49.7581V48.0546H51.4615V46.3512Z" fill="#FAFAFA"/>
<path d="M53.165 46.3512H51.4615V48.0546H53.165V46.3512Z" fill="#FAFAFA"/>
<path d="M54.8684 46.3512H53.165V48.0546H54.8684V46.3512Z" fill="#FAFAFA"/>
<path d="M58.2753 46.3512H56.5719V48.0546H58.2753V46.3512Z" fill="#FAFAFA"/>
<path d="M59.9788 46.3512H58.2753V48.0546H59.9788V46.3512Z" fill="#FAFAFA"/>
<path d="M61.6822 46.3512H59.9788V48.0546H61.6822V46.3512Z" fill="#FAFAFA"/>
<path d="M63.3857 46.3512H61.6822V48.0546H63.3857V46.3512Z" fill="#FAFAFA"/>
<path d="M65.0891 46.3512H63.3857V48.0546H65.0891V46.3512Z" fill="#FAFAFA"/>
<path d="M66.7926 46.3512H65.0891V48.0546H66.7926V46.3512Z" fill="#FAFAFA"/>
<path d="M70.1995 46.3512H68.496V48.0546H70.1995V46.3512Z" fill="#FAFAFA"/>
<path d="M77.0132 46.3512H75.3098V48.0546H77.0132V46.3512Z" fill="#FAFAFA"/>
<path d="M78.7167 46.3512H77.0132V48.0546H78.7167V46.3512Z" fill="#FAFAFA"/>
<path d="M80.4201 46.3512H78.7167V48.0546H80.4201V46.3512Z" fill="#FAFAFA"/>
<path d="M83.827 46.3512H82.1236V48.0546H83.827V46.3512Z" fill="#FAFAFA"/>
<path d="M8.87532 48.0546H7.17188V49.7581H8.87532V48.0546Z" fill="#FAFAFA"/>
<path d="M10.5788 48.0546H8.87532V49.7581H10.5788V48.0546Z" fill="#FAFAFA"/>
<path d="M13.9857 48.0546H12.2822V49.7581H13.9857V48.0546Z" fill="#FAFAFA"/>
<path d="M15.6891 48.0546H13.9857V49.7581H15.6891V48.0546Z" fill="#FAFAFA"/>
<path d="M17.3926 48.0546H15.6891V49.7581H17.3926V48.0546Z" fill="#FAFAFA"/>
<path d="M19.096 48.0546H17.3926V49.7581H19.096V48.0546Z" fill="#FAFAFA"/>
<path d="M20.7995 48.0546H19.096V49.7581H20.7995V48.0546Z" fill="#FAFAFA"/>
<path d="M22.5029 48.0546H20.7995V49.7581H22.5029V48.0546Z" fill="#FAFAFA"/>
<path d="M29.3167 48.0546H27.6133V49.7581H29.3167V48.0546Z" fill="#FAFAFA"/>
<path d="M37.8339 48.0546H36.1305V49.7581H37.8339V48.0546Z" fill="#FAFAFA"/>
<path d="M42.9443 48.0546H41.2408V49.7581H42.9443V48.0546Z" fill="#FAFAFA"/>
<path d="M44.6477 48.0546H42.9443V49.7581H44.6477V48.0546Z" fill="#FAFAFA"/>
<path d="M46.3512 48.0546H44.6477V49.7581H46.3512V48.0546Z" fill="#FAFAFA"/>
<path d="M48.0546 48.0546H46.3512V49.7581H48.0546V48.0546Z" fill="#FAFAFA"/>
<path d="M49.7581 48.0546H48.0546V49.7581H49.7581V48.0546Z" fill="#FAFAFA"/>
<path d="M53.165 48.0546H51.4615V49.7581H53.165V48.0546Z" fill="#FAFAFA"/>
<path d="M58.2753 48.0546H56.5719V49.7581H58.2753V48.0546Z" fill="#FAFAFA"/>
<path d="M65.0891 48.0546H63.3857V49.7581H65.0891V48.0546Z" fill="#FAFAFA"/>
<path d="M66.7926 48.0546H65.0891V49.7581H66.7926V48.0546Z" fill="#FAFAFA"/>
<path d="M68.496 48.0546H66.7926V49.7581H68.496V48.0546Z" fill="#FAFAFA"/>
<path d="M70.1995 48.0546H68.496V49.7581H70.1995V48.0546Z" fill="#FAFAFA"/>
<path d="M71.9029 48.0546H70.1995V49.7581H71.9029V48.0546Z" fill="#FAFAFA"/>
<path d="M73.6064 48.0546H71.9029V49.7581H73.6064V48.0546Z" fill="#FAFAFA"/>
<path d="M75.3098 48.0546H73.6064V49.7581H75.3098V48.0546Z" fill="#FAFAFA"/>
<path d="M77.0132 48.0546H75.3098V49.7581H77.0132V48.0546Z" fill="#FAFAFA"/>
<path d="M78.7167 48.0546H77.0132V49.7581H78.7167V48.0546Z" fill="#FAFAFA"/>
<path d="M82.1236 48.0546H80.4201V49.7581H82.1236V48.0546Z" fill="#FAFAFA"/>
<path d="M8.87532 49.7581H7.17188V51.4615H8.87532V49.7581Z" fill="#FAFAFA"/>
<path d="M10.5788 49.7581H8.87532V51.4615H10.5788V49.7581Z" fill="#FAFAFA"/>
<path d="M15.6891 49.7581H13.9857V51.4615H15.6891V49.7581Z" fill="#FAFAFA"/>
<path d="M17.3926 49.7581H15.6891V51.4615H17.3926V49.7581Z" fill="#FAFAFA"/>
<path d="M20.7995 49.7581H19.096V51.4615H20.7995V49.7581Z" fill="#FAFAFA"/>
<path d="M22.5029 49.7581H20.7995V51.4615H22.5029V49.7581Z" fill="#FAFAFA"/>
<path d="M24.2064 49.7581H22.5029V51.4615H24.2064V49.7581Z" fill="#FAFAFA"/>
<path d="M25.9098 49.7581H24.2064V51.4615H25.9098V49.7581Z" fill="#FAFAFA"/>
<path d="M29.3167 49.7581H27.6133V51.4615H29.3167V49.7581Z" fill="#FAFAFA"/>
<path d="M31.0201 49.7581H29.3167V51.4615H31.0201V49.7581Z" fill="#FAFAFA"/>
<path d="M32.7236 49.7581H31.0201V51.4615H32.7236V49.7581Z" fill="#FAFAFA"/>
<path d="M46.3512 49.7581H44.6477V51.4615H46.3512V49.7581Z" fill="#FAFAFA"/>
<path d="M48.0546 49.7581H46.3512V51.4615H48.0546V49.7581Z" fill="#FAFAFA"/>
<path d="M56.5719 49.7581H54.8684V51.4615H56.5719V49.7581Z" fill="#FAFAFA"/>
<path d="M58.2753 49.7581H56.5719V51.4615H58.2753V49.7581Z" fill="#FAFAFA"/>
<path d="M59.9788 49.7581H58.2753V51.4615H59.9788V49.7581Z" fill="#FAFAFA"/>
<path d="M61.6822 49.7581H59.9788V51.4615H61.6822V49.7581Z" fill="#FAFAFA"/>
<path d="M65.0891 49.7581H63.3857V51.4615H65.0891V49.7581Z" fill="#FAFAFA"/>
<path d="M66.7926 49.7581H65.0891V51.4615H66.7926V49.7581Z" fill="#FAFAFA"/>
<path d="M68.496 49.7581H66.7926V51.4615H68.496V49.7581Z" fill="#FAFAFA"/>
<path d="M71.9029 49.7581H70.1995V51.4615H71.9029V49.7581Z" fill="#FAFAFA"/>
<path d="M77.0132 49.7581H75.3098V51.4615H77.0132V49.7581Z" fill="#FAFAFA"/>
<path d="M80.4201 49.7581H78.7167V51.4615H80.4201V49.7581Z" fill="#FAFAFA"/>
<path d="M82.1236 49.7581H80.4201V51.4615H82.1236V49.7581Z" fill="#FAFAFA"/>
<path d="M12.2822 51.4615H10.5788V53.165H12.2822V51.4615Z" fill="#FAFAFA"/>
<path d="M13.9857 51.4615H12.2822V53.165H13.9857V51.4615Z" fill="#FAFAFA"/>
<path d="M19.096 51.4615H17.3926V53.165H19.096V51.4615Z" fill="#FAFAFA"/>
<path d="M29.3167 51.4615H27.6133V53.165H29.3167V51.4615Z" fill="#FAFAFA"/>
<path d="M31.0201 51.4615H29.3167V53.165H31.0201V51.4615Z" fill="#FAFAFA"/>
<path d="M32.7236 51.4615H31.0201V53.165H32.7236V51.4615Z" fill="#FAFAFA"/>
<path d="M39.5374 51.4615H37.8339V53.165H39.5374V51.4615Z" fill="#FAFAFA"/>
<path d="M41.2408 51.4615H39.5374V53.165H41.2408V51.4615Z" fill="#FAFAFA"/>
<path d="M46.3512 51.4615H44.6477V53.165H46.3512V51.4615Z" fill="#FAFAFA"/>
<path d="M48.0546 51.4615H46.3512V53.165H48.0546V51.4615Z" fill="#FAFAFA"/>
<path d="M51.4615 51.4615H49.7581V53.165H51.4615V51.4615Z" fill="#FAFAFA"/>
<path d="M53.165 51.4615H51.4615V53.165H53.165V51.4615Z" fill="#FAFAFA"/>
<path d="M54.8684 51.4615H53.165V53.165H54.8684V51.4615Z" fill="#FAFAFA"/>
<path d="M56.5719 51.4615H54.8684V53.165H56.5719V51.4615Z" fill="#FAFAFA"/>
<path d="M61.6822 51.4615H59.9788V53.165H61.6822V51.4615Z" fill="#FAFAFA"/>
<path d="M65.0891 51.4615H63.3857V53.165H65.0891V51.4615Z" fill="#FAFAFA"/>
<path d="M66.7926 51.4615H65.0891V53.165H66.7926V51.4615Z" fill="#FAFAFA"/>
<path d="M71.9029 51.4615H70.1995V53.165H71.9029V51.4615Z" fill="#FAFAFA"/>
<path d="M77.0132 51.4615H75.3098V53.165H77.0132V51.4615Z" fill="#FAFAFA"/>
<path d="M78.7167 51.4615H77.0132V53.165H78.7167V51.4615Z" fill="#FAFAFA"/>
<path d="M83.827 51.4615H82.1236V53.165H83.827V51.4615Z" fill="#FAFAFA"/>
<path d="M12.2822 53.165H10.5788V54.8684H12.2822V53.165Z" fill="#FAFAFA"/>
<path d="M15.6891 53.165H13.9857V54.8684H15.6891V53.165Z" fill="#FAFAFA"/>
<path d="M22.5029 53.165H20.7995V54.8684H22.5029V53.165Z" fill="#FAFAFA"/>
<path d="M32.7236 53.165H31.0201V54.8684H32.7236V53.165Z" fill="#FAFAFA"/>
<path d="M34.427 53.165H32.7236V54.8684H34.427V53.165Z" fill="#FAFAFA"/>
<path d="M37.8339 53.165H36.1305V54.8684H37.8339V53.165Z" fill="#FAFAFA"/>
<path d="M39.5374 53.165H37.8339V54.8684H39.5374V53.165Z" fill="#FAFAFA"/>
<path d="M41.2408 53.165H39.5374V54.8684H41.2408V53.165Z" fill="#FAFAFA"/>
<path d="M51.4615 53.165H49.7581V54.8684H51.4615V53.165Z" fill="#FAFAFA"/>
<path d="M53.165 53.165H51.4615V54.8684H53.165V53.165Z" fill="#FAFAFA"/>
<path d="M56.5719 53.165H54.8684V54.8684H56.5719V53.165Z" fill="#FAFAFA"/>
<path d="M63.3857 53.165H61.6822V54.8684H63.3857V53.165Z" fill="#FAFAFA"/>
<path d="M68.496 53.165H66.7926V54.8684H68.496V53.165Z" fill="#FAFAFA"/>
<path d="M71.9029 53.165H70.1995V54.8684H71.9029V53.165Z" fill="#FAFAFA"/>
<path d="M77.0132 53.165H75.3098V54.8684H77.0132V53.165Z" fill="#FAFAFA"/>
<path d="M78.7167 53.165H77.0132V54.8684H78.7167V53.165Z" fill="#FAFAFA"/>
<path d="M80.4201 53.165H78.7167V54.8684H80.4201V53.165Z" fill="#FAFAFA"/>
<path d="M83.827 53.165H82.1236V54.8684H83.827V53.165Z" fill="#FAFAFA"/>
<path d="M10.5788 54.8684H8.87532V56.5719H10.5788V54.8684Z" fill="#FAFAFA"/>
<path d="M19.096 54.8684H17.3926V56.5719H19.096V54.8684Z" fill="#FAFAFA"/>
<path d="M20.7995 54.8684H19.096V56.5719H20.7995V54.8684Z" fill="#FAFAFA"/>
<path d="M22.5029 54.8684H20.7995V56.5719H22.5029V54.8684Z" fill="#FAFAFA"/>
<path d="M25.9098 54.8684H24.2064V56.5719H25.9098V54.8684Z" fill="#FAFAFA"/>
<path d="M32.7236 54.8684H31.0201V56.5719H32.7236V54.8684Z" fill="#FAFAFA"/>
<path d="M34.427 54.8684H32.7236V56.5719H34.427V54.8684Z" fill="#FAFAFA"/>
<path d="M37.8339 54.8684H36.1305V56.5719H37.8339V54.8684Z" fill="#FAFAFA"/>
<path d="M39.5374 54.8684H37.8339V56.5719H39.5374V54.8684Z" fill="#FAFAFA"/>
<path d="M42.9443 54.8684H41.2408V56.5719H42.9443V54.8684Z" fill="#FAFAFA"/>
<path d="M51.4615 54.8684H49.7581V56.5719H51.4615V54.8684Z" fill="#FAFAFA"/>
<path d="M53.165 54.8684H51.4615V56.5719H53.165V54.8684Z" fill="#FAFAFA"/>
<path d="M54.8684 54.8684H53.165V56.5719H54.8684V54.8684Z" fill="#FAFAFA"/>
<path d="M58.2753 54.8684H56.5719V56.5719H58.2753V54.8684Z" fill="#FAFAFA"/>
<path d="M59.9788 54.8684H58.2753V56.5719H59.9788V54.8684Z" fill="#FAFAFA"/>
<path d="M61.6822 54.8684H59.9788V56.5719H61.6822V54.8684Z" fill="#FAFAFA"/>
<path d="M63.3857 54.8684H61.6822V56.5719H63.3857V54.8684Z" fill="#FAFAFA"/>
<path d="M71.9029 54.8684H70.1995V56.5719H71.9029V54.8684Z" fill="#FAFAFA"/>
<path d="M73.6064 54.8684H71.9029V56.5719H73.6064V54.8684Z" fill="#FAFAFA"/>
<path d="M75.3098 54.8684H73.6064V56.5719H75.3098V54.8684Z" fill="#FAFAFA"/>
<path d="M78.7167 54.8684H77.0132V56.5719H78.7167V54.8684Z" fill="#FAFAFA"/>
<path d="M8.87532 56.5719H7.17188V58.2753H8.87532V56.5719Z" fill="#FAFAFA"/>
<path d="M10.5788 56.5719H8.87532V58.2753H10.5788V56.5719Z" fill="#FAFAFA"/>
<path d="M12.2822 56.5719H10.5788V58.2753H12.2822V56.5719Z" fill="#FAFAFA"/>
<path d="M13.9857 56.5719H12.2822V58.2753H13.9857V56.5719Z" fill="#FAFAFA"/>
<path d="M15.6891 56.5719H13.9857V58.2753H15.6891V56.5719Z" fill="#FAFAFA"/>
<path d="M22.5029 56.5719H20.7995V58.2753H22.5029V56.5719Z" fill="#FAFAFA"/>
<path d="M24.2064 56.5719H22.5029V58.2753H24.2064V56.5719Z" fill="#FAFAFA"/>
<path d="M29.3167 56.5719H27.6133V58.2753H29.3167V56.5719Z" fill="#FAFAFA"/>
<path d="M34.427 56.5719H32.7236V58.2753H34.427V56.5719Z" fill="#FAFAFA"/>
<path d="M36.1305 56.5719H34.427V58.2753H36.1305V56.5719Z" fill="#FAFAFA"/>
<path d="M37.8339 56.5719H36.1305V58.2753H37.8339V56.5719Z" fill="#FAFAFA"/>
<path d="M39.5374 56.5719H37.8339V58.2753H39.5374V56.5719Z" fill="#FAFAFA"/>
<path d="M41.2408 56.5719H39.5374V58.2753H41.2408V56.5719Z" fill="#FAFAFA"/>
<path d="M42.9443 56.5719H41.2408V58.2753H42.9443V56.5719Z" fill="#FAFAFA"/>
<path d="M48.0546 56.5719H46.3512V58.2753H48.0546V56.5719Z" fill="#FAFAFA"/>
<path d="M54.8684 56.5719H53.165V58.2753H54.8684V56.5719Z" fill="#FAFAFA"/>
<path d="M58.2753 56.5719H56.5719V58.2753H58.2753V56.5719Z" fill="#FAFAFA"/>
<path d="M59.9788 56.5719H58.2753V58.2753H59.9788V56.5719Z" fill="#FAFAFA"/>
<path d="M65.0891 56.5719H63.3857V58.2753H65.0891V56.5719Z" fill="#FAFAFA"/>
<path d="M66.7926 56.5719H65.0891V58.2753H66.7926V56.5719Z" fill="#FAFAFA"/>
<path d="M70.1995 56.5719H68.496V58.2753H70.1995V56.5719Z" fill="#FAFAFA"/>
<path d="M78.7167 56.5719H77.0132V58.2753H78.7167V56.5719Z" fill="#FAFAFA"/>
<path d="M80.4201 56.5719H78.7167V58.2753H80.4201V56.5719Z" fill="#FAFAFA"/>
<path d="M8.87532 58.2753H7.17188V59.9788H8.87532V58.2753Z" fill="#FAFAFA"/>
<path d="M10.5788 58.2753H8.87532V59.9788H10.5788V58.2753Z" fill="#FAFAFA"/>
<path d="M12.2822 58.2753H10.5788V59.9788H12.2822V58.2753Z" fill="#FAFAFA"/>
<path d="M13.9857 58.2753H12.2822V59.9788H13.9857V58.2753Z" fill="#FAFAFA"/>
<path d="M17.3926 58.2753H15.6891V59.9788H17.3926V58.2753Z" fill="#FAFAFA"/>
<path d="M19.096 58.2753H17.3926V59.9788H19.096V58.2753Z" fill="#FAFAFA"/>
<path d="M24.2064 58.2753H22.5029V59.9788H24.2064V58.2753Z" fill="#FAFAFA"/>
<path d="M25.9098 58.2753H24.2064V59.9788H25.9098V58.2753Z" fill="#FAFAFA"/>
<path d="M29.3167 58.2753H27.6133V59.9788H29.3167V58.2753Z" fill="#FAFAFA"/>
<path d="M32.7236 58.2753H31.0201V59.9788H32.7236V58.2753Z" fill="#FAFAFA"/>
<path d="M44.6477 58.2753H42.9443V59.9788H44.6477V58.2753Z" fill="#FAFAFA"/>
<path d="M48.0546 58.2753H46.3512V59.9788H48.0546V58.2753Z" fill="#FAFAFA"/>
<path d="M49.7581 58.2753H48.0546V59.9788H49.7581V58.2753Z" fill="#FAFAFA"/>
<path d="M53.165 58.2753H51.4615V59.9788H53.165V58.2753Z" fill="#FAFAFA"/>
<path d="M56.5719 58.2753H54.8684V59.9788H56.5719V58.2753Z" fill="#FAFAFA"/>
<path d="M65.0891 58.2753H63.3857V59.9788H65.0891V58.2753Z" fill="#FAFAFA"/>
<path d="M66.7926 58.2753H65.0891V59.9788H66.7926V58.2753Z" fill="#FAFAFA"/>
<path d="M68.496 58.2753H66.7926V59.9788H68.496V58.2753Z" fill="#FAFAFA"/>
<path d="M70.1995 58.2753H68.496V59.9788H70.1995V58.2753Z" fill="#FAFAFA"/>
<path d="M73.6064 58.2753H71.9029V59.9788H73.6064V58.2753Z" fill="#FAFAFA"/>
<path d="M82.1236 58.2753H80.4201V59.9788H82.1236V58.2753Z" fill="#FAFAFA"/>
<path d="M83.827 58.2753H82.1236V59.9788H83.827V58.2753Z" fill="#FAFAFA"/>
<path d="M12.2822 59.9788H10.5788V61.6822H12.2822V59.9788Z" fill="#FAFAFA"/>
<path d="M13.9857 59.9788H12.2822V61.6822H13.9857V59.9788Z" fill="#FAFAFA"/>
<path d="M24.2064 59.9788H22.5029V61.6822H24.2064V59.9788Z" fill="#FAFAFA"/>
<path d="M27.6133 59.9788H25.9098V61.6822H27.6133V59.9788Z" fill="#FAFAFA"/>
<path d="M29.3167 59.9788H27.6133V61.6822H29.3167V59.9788Z" fill="#FAFAFA"/>
<path d="M36.1305 59.9788H34.427V61.6822H36.1305V59.9788Z" fill="#FAFAFA"/>
<path d="M37.8339 59.9788H36.1305V61.6822H37.8339V59.9788Z" fill="#FAFAFA"/>
<path d="M39.5374 59.9788H37.8339V61.6822H39.5374V59.9788Z" fill="#FAFAFA"/>
<path d="M44.6477 59.9788H42.9443V61.6822H44.6477V59.9788Z" fill="#FAFAFA"/>
<path d="M46.3512 59.9788H44.6477V61.6822H46.3512V59.9788Z" fill="#FAFAFA"/>
<path d="M49.7581 59.9788H48.0546V61.6822H49.7581V59.9788Z" fill="#FAFAFA"/>
<path d="M51.4615 59.9788H49.7581V61.6822H51.4615V59.9788Z" fill="#FAFAFA"/>
<path d="M54.8684 59.9788H53.165V61.6822H54.8684V59.9788Z" fill="#FAFAFA"/>
<path d="M65.0891 59.9788H63.3857V61.6822H65.0891V59.9788Z" fill="#FAFAFA"/>
<path d="M68.496 59.9788H66.7926V61.6822H68.496V59.9788Z" fill="#FAFAFA"/>
<path d="M70.1995 59.9788H68.496V61.6822H70.1995V59.9788Z" fill="#FAFAFA"/>
<path d="M77.0132 59.9788H75.3098V61.6822H77.0132V59.9788Z" fill="#FAFAFA"/>
<path d="M80.4201 59.9788H78.7167V61.6822H80.4201V59.9788Z" fill="#FAFAFA"/>
<path d="M10.5788 61.6822H8.87532V63.3857H10.5788V61.6822Z" fill="#FAFAFA"/>
<path d="M13.9857 61.6822H12.2822V63.3857H13.9857V61.6822Z" fill="#FAFAFA"/>
<path d="M17.3926 61.6822H15.6891V63.3857H17.3926V61.6822Z" fill="#FAFAFA"/>
<path d="M19.096 61.6822H17.3926V63.3857H19.096V61.6822Z" fill="#FAFAFA"/>
<path d="M27.6133 61.6822H25.9098V63.3857H27.6133V61.6822Z" fill="#FAFAFA"/>
<path d="M31.0201 61.6822H29.3167V63.3857H31.0201V61.6822Z" fill="#FAFAFA"/>
<path d="M34.427 61.6822H32.7236V63.3857H34.427V61.6822Z" fill="#FAFAFA"/>
<path d="M36.1305 61.6822H34.427V63.3857H36.1305V61.6822Z" fill="#FAFAFA"/>
<path d="M44.6477 61.6822H42.9443V63.3857H44.6477V61.6822Z" fill="#FAFAFA"/>
<path d="M48.0546 61.6822H46.3512V63.3857H48.0546V61.6822Z" fill="#FAFAFA"/>
<path d="M53.165 61.6822H51.4615V63.3857H53.165V61.6822Z" fill="#FAFAFA"/>
<path d="M56.5719 61.6822H54.8684V63.3857H56.5719V61.6822Z" fill="#FAFAFA"/>
<path d="M66.7926 61.6822H65.0891V63.3857H66.7926V61.6822Z" fill="#FAFAFA"/>
<path d="M68.496 61.6822H66.7926V63.3857H68.496V61.6822Z" fill="#FAFAFA"/>
<path d="M73.6064 61.6822H71.9029V63.3857H73.6064V61.6822Z" fill="#FAFAFA"/>
<path d="M75.3098 61.6822H73.6064V63.3857H75.3098V61.6822Z" fill="#FAFAFA"/>
<path d="M77.0132 61.6822H75.3098V63.3857H77.0132V61.6822Z" fill="#FAFAFA"/>
<path d="M78.7167 61.6822H77.0132V63.3857H78.7167V61.6822Z" fill="#FAFAFA"/>
<path d="M80.4201 61.6822H78.7167V63.3857H80.4201V61.6822Z" fill="#FAFAFA"/>
<path d="M10.5788 63.3857H8.87532V65.0891H10.5788V63.3857Z" fill="#FAFAFA"/>
<path d="M15.6891 63.3857H13.9857V65.0891H15.6891V63.3857Z" fill="#FAFAFA"/>
<path d="M20.7995 63.3857H19.096V65.0891H20.7995V63.3857Z" fill="#FAFAFA"/>
<path d="M22.5029 63.3857H20.7995V65.0891H22.5029V63.3857Z" fill="#FAFAFA"/>
<path d="M32.7236 63.3857H31.0201V65.0891H32.7236V63.3857Z" fill="#FAFAFA"/>
<path d="M34.427 63.3857H32.7236V65.0891H34.427V63.3857Z" fill="#FAFAFA"/>
<path d="M39.5374 63.3857H37.8339V65.0891H39.5374V63.3857Z" fill="#FAFAFA"/>
<path d="M41.2408 63.3857H39.5374V65.0891H41.2408V63.3857Z" fill="#FAFAFA"/>
<path d="M56.5719 63.3857H54.8684V65.0891H56.5719V63.3857Z" fill="#FAFAFA"/>
<path d="M59.9788 63.3857H58.2753V65.0891H59.9788V63.3857Z" fill="#FAFAFA"/>
<path d="M61.6822 63.3857H59.9788V65.0891H61.6822V63.3857Z" fill="#FAFAFA"/>
<path d="M68.496 63.3857H66.7926V65.0891H68.496V63.3857Z" fill="#FAFAFA"/>
<path d="M70.1995 63.3857H68.496V65.0891H70.1995V63.3857Z" fill="#FAFAFA"/>
<path d="M71.9029 63.3857H70.1995V65.0891H71.9029V63.3857Z" fill="#FAFAFA"/>
<path d="M77.0132 63.3857H75.3098V65.0891H77.0132V63.3857Z" fill="#FAFAFA"/>
<path d="M80.4201 63.3857H78.7167V65.0891H80.4201V63.3857Z" fill="#FAFAFA"/>
<path d="M83.827 63.3857H82.1236V65.0891H83.827V63.3857Z" fill="#FAFAFA"/>
<path d="M15.6891 65.0891H13.9857V66.7926H15.6891V65.0891Z" fill="#FAFAFA"/>
<path d="M19.096 65.0891H17.3926V66.7926H19.096V65.0891Z" fill="#FAFAFA"/>
<path d="M22.5029 65.0891H20.7995V66.7926H22.5029V65.0891Z" fill="#FAFAFA"/>
<path d="M25.9098 65.0891H24.2064V66.7926H25.9098V65.0891Z" fill="#FAFAFA"/>
<path d="M27.6133 65.0891H25.9098V66.7926H27.6133V65.0891Z" fill="#FAFAFA"/>
<path d="M32.7236 65.0891H31.0201V66.7926H32.7236V65.0891Z" fill="#FAFAFA"/>
<path d="M34.427 65.0891H32.7236V66.7926H34.427V65.0891Z" fill="#FAFAFA"/>
<path d="M36.1305 65.0891H34.427V66.7926H36.1305V65.0891Z" fill="#FAFAFA"/>
<path d="M37.8339 65.0891H36.1305V66.7926H37.8339V65.0891Z" fill="#FAFAFA"/>
<path d="M39.5374 65.0891H37.8339V66.7926H39.5374V65.0891Z" fill="#FAFAFA"/>
<path d="M41.2408 65.0891H39.5374V66.7926H41.2408V65.0891Z" fill="#FAFAFA"/>
<path d="M46.3512 65.0891H44.6477V66.7926H46.3512V65.0891Z" fill="#FAFAFA"/>
<path d="M48.0546 65.0891H46.3512V66.7926H48.0546V65.0891Z" fill="#FAFAFA"/>
<path d="M49.7581 65.0891H48.0546V66.7926H49.7581V65.0891Z" fill="#FAFAFA"/>
<path d="M54.8684 65.0891H53.165V66.7926H54.8684V65.0891Z" fill="#FAFAFA"/>
<path d="M58.2753 65.0891H56.5719V66.7926H58.2753V65.0891Z" fill="#FAFAFA"/>
<path d="M59.9788 65.0891H58.2753V66.7926H59.9788V65.0891Z" fill="#FAFAFA"/>
<path d="M63.3857 65.0891H61.6822V66.7926H63.3857V65.0891Z" fill="#FAFAFA"/>
<path d="M66.7926 65.0891H65.0891V66.7926H66.7926V65.0891Z" fill="#FAFAFA"/>
<path d="M70.1995 65.0891H68.496V66.7926H70.1995V65.0891Z" fill="#FAFAFA"/>
<path d="M71.9029 65.0891H70.1995V66.7926H71.9029V65.0891Z" fill="#FAFAFA"/>
<path d="M73.6064 65.0891H71.9029V66.7926H73.6064V65.0891Z" fill="#FAFAFA"/>
<path d="M75.3098 65.0891H73.6064V66.7926H75.3098V65.0891Z" fill="#FAFAFA"/>
<path d="M77.0132 65.0891H75.3098V66.7926H77.0132V65.0891Z" fill="#FAFAFA"/>
<path d="M78.7167 65.0891H77.0132V66.7926H78.7167V65.0891Z" fill="#FAFAFA"/>
<path d="M80.4201 65.0891H78.7167V66.7926H80.4201V65.0891Z" fill="#FAFAFA"/>
<path d="M10.5788 66.7926H8.87532V68.496H10.5788V66.7926Z" fill="#FAFAFA"/>
<path d="M12.2822 66.7926H10.5788V68.496H12.2822V66.7926Z" fill="#FAFAFA"/>
<path d="M13.9857 66.7926H12.2822V68.496H13.9857V66.7926Z" fill="#FAFAFA"/>
<path d="M15.6891 66.7926H13.9857V68.496H15.6891V66.7926Z" fill="#FAFAFA"/>
<path d="M22.5029 66.7926H20.7995V68.496H22.5029V66.7926Z" fill="#FAFAFA"/>
<path d="M24.2064 66.7926H22.5029V68.496H24.2064V66.7926Z" fill="#FAFAFA"/>
<path d="M25.9098 66.7926H24.2064V68.496H25.9098V66.7926Z" fill="#FAFAFA"/>
<path d="M31.0201 66.7926H29.3167V68.496H31.0201V66.7926Z" fill="#FAFAFA"/>
<path d="M32.7236 66.7926H31.0201V68.496H32.7236V66.7926Z" fill="#FAFAFA"/>
<path d="M34.427 66.7926H32.7236V68.496H34.427V66.7926Z" fill="#FAFAFA"/>
<path d="M39.5374 66.7926H37.8339V68.496H39.5374V66.7926Z" fill="#FAFAFA"/>
<path d="M41.2408 66.7926H39.5374V68.496H41.2408V66.7926Z" fill="#FAFAFA"/>
<path d="M48.0546 66.7926H46.3512V68.496H48.0546V66.7926Z" fill="#FAFAFA"/>
<path d="M53.165 66.7926H51.4615V68.496H53.165V66.7926Z" fill="#FAFAFA"/>
<path d="M54.8684 66.7926H53.165V68.496H54.8684V66.7926Z" fill="#FAFAFA"/>
<path d="M56.5719 66.7926H54.8684V68.496H56.5719V66.7926Z" fill="#FAFAFA"/>
<path d="M59.9788 66.7926H58.2753V68.496H59.9788V66.7926Z" fill="#FAFAFA"/>
<path d="M65.0891 66.7926H63.3857V68.496H65.0891V66.7926Z" fill="#FAFAFA"/>
<path d="M66.7926 66.7926H65.0891V68.496H66.7926V66.7926Z" fill="#FAFAFA"/>
<path d="M68.496 66.7926H66.7926V68.496H68.496V66.7926Z" fill="#FAFAFA"/>
<path d="M71.9029 66.7926H70.1995V68.496H71.9029V66.7926Z" fill="#FAFAFA"/>
<path d="M77.0132 66.7926H75.3098V68.496H77.0132V66.7926Z" fill="#FAFAFA"/>
<path d="M80.4201 66.7926H78.7167V68.496H80.4201V66.7926Z" fill="#FAFAFA"/>
<path d="M82.1236 66.7926H80.4201V68.496H82.1236V66.7926Z" fill="#FAFAFA"/>
<path d="M83.827 66.7926H82.1236V68.496H83.827V66.7926Z" fill="#FAFAFA"/>
<path d="M8.87532 68.496H7.17188V70.1995H8.87532V68.496Z" fill="#FAFAFA"/>
<path d="M13.9857 68.496H12.2822V70.1995H13.9857V68.496Z" fill="#FAFAFA"/>
<path d="M15.6891 68.496H13.9857V70.1995H15.6891V68.496Z" fill="#FAFAFA"/>
<path d="M19.096 68.496H17.3926V70.1995H19.096V68.496Z" fill="#FAFAFA"/>
<path d="M20.7995 68.496H19.096V70.1995H20.7995V68.496Z" fill="#FAFAFA"/>
<path d="M22.5029 68.496H20.7995V70.1995H22.5029V68.496Z" fill="#FAFAFA"/>
<path d="M24.2064 68.496H22.5029V70.1995H24.2064V68.496Z" fill="#FAFAFA"/>
<path d="M34.427 68.496H32.7236V70.1995H34.427V68.496Z" fill="#FAFAFA"/>
<path d="M36.1305 68.496H34.427V70.1995H36.1305V68.496Z" fill="#FAFAFA"/>
<path d="M42.9443 68.496H41.2408V70.1995H42.9443V68.496Z" fill="#FAFAFA"/>
<path d="M44.6477 68.496H42.9443V70.1995H44.6477V68.496Z" fill="#FAFAFA"/>
<path d="M46.3512 68.496H44.6477V70.1995H46.3512V68.496Z" fill="#FAFAFA"/>
<path d="M48.0546 68.496H46.3512V70.1995H48.0546V68.496Z" fill="#FAFAFA"/>
<path d="M49.7581 68.496H48.0546V70.1995H49.7581V68.496Z" fill="#FAFAFA"/>
<path d="M51.4615 68.496H49.7581V70.1995H51.4615V68.496Z" fill="#FAFAFA"/>
<path d="M59.9788 68.496H58.2753V70.1995H59.9788V68.496Z" fill="#FAFAFA"/>
<path d="M61.6822 68.496H59.9788V70.1995H61.6822V68.496Z" fill="#FAFAFA"/>
<path d="M63.3857 68.496H61.6822V70.1995H63.3857V68.496Z" fill="#FAFAFA"/>
<path d="M65.0891 68.496H63.3857V70.1995H65.0891V68.496Z" fill="#FAFAFA"/>
<path d="M66.7926 68.496H65.0891V70.1995H66.7926V68.496Z" fill="#FAFAFA"/>
<path d="M68.496 68.496H66.7926V70.1995H68.496V68.496Z" fill="#FAFAFA"/>
<path d="M70.1995 68.496H68.496V70.1995H70.1995V68.496Z" fill="#FAFAFA"/>
<path d="M71.9029 68.496H70.1995V70.1995H71.9029V68.496Z" fill="#FAFAFA"/>
<path d="M73.6064 68.496H71.9029V70.1995H73.6064V68.496Z" fill="#FAFAFA"/>
<path d="M75.3098 68.496H73.6064V70.1995H75.3098V68.496Z" fill="#FAFAFA"/>
<path d="M77.0132 68.496H75.3098V70.1995H77.0132V68.496Z" fill="#FAFAFA"/>
<path d="M78.7167 68.496H77.0132V70.1995H78.7167V68.496Z" fill="#FAFAFA"/>
<path d="M80.4201 68.496H78.7167V70.1995H80.4201V68.496Z" fill="#FAFAFA"/>
<path d="M83.827 68.496H82.1236V70.1995H83.827V68.496Z" fill="#FAFAFA"/>
<path d="M24.2064 70.1995H22.5029V71.9029H24.2064V70.1995Z" fill="#FAFAFA"/>
<path d="M25.9098 70.1995H24.2064V71.9029H25.9098V70.1995Z" fill="#FAFAFA"/>
<path d="M29.3167 70.1995H27.6133V71.9029H29.3167V70.1995Z" fill="#FAFAFA"/>
<path d="M31.0201 70.1995H29.3167V71.9029H31.0201V70.1995Z" fill="#FAFAFA"/>
<path d="M32.7236 70.1995H31.0201V71.9029H32.7236V70.1995Z" fill="#FAFAFA"/>
<path d="M36.1305 70.1995H34.427V71.9029H36.1305V70.1995Z" fill="#FAFAFA"/>
<path d="M39.5374 70.1995H37.8339V71.9029H39.5374V70.1995Z" fill="#FAFAFA"/>
<path d="M41.2408 70.1995H39.5374V71.9029H41.2408V70.1995Z" fill="#FAFAFA"/>
<path d="M42.9443 70.1995H41.2408V71.9029H42.9443V70.1995Z" fill="#FAFAFA"/>
<path d="M49.7581 70.1995H48.0546V71.9029H49.7581V70.1995Z" fill="#FAFAFA"/>
<path d="M51.4615 70.1995H49.7581V71.9029H51.4615V70.1995Z" fill="#FAFAFA"/>
<path d="M56.5719 70.1995H54.8684V71.9029H56.5719V70.1995Z" fill="#FAFAFA"/>
<path d="M58.2753 70.1995H56.5719V71.9029H58.2753V70.1995Z" fill="#FAFAFA"/>
<path d="M59.9788 70.1995H58.2753V71.9029H59.9788V70.1995Z" fill="#FAFAFA"/>
<path d="M63.3857 70.1995H61.6822V71.9029H63.3857V70.1995Z" fill="#FAFAFA"/>
<path d="M65.0891 70.1995H63.3857V71.9029H65.0891V70.1995Z" fill="#FAFAFA"/>
<path d="M70.1995 70.1995H68.496V71.9029H70.1995V70.1995Z" fill="#FAFAFA"/>
<path d="M77.0132 70.1995H75.3098V71.9029H77.0132V70.1995Z" fill="#FAFAFA"/>
<path d="M78.7167 70.1995H77.0132V71.9029H78.7167V70.1995Z" fill="#FAFAFA"/>
<path d="M82.1236 70.1995H80.4201V71.9029H82.1236V70.1995Z" fill="#FAFAFA"/>
<path d="M8.87532 71.9029H7.17188V73.6064H8.87532V71.9029Z" fill="#FAFAFA"/>
<path d="M10.5788 71.9029H8.87532V73.6064H10.5788V71.9029Z" fill="#FAFAFA"/>
<path d="M12.2822 71.9029H10.5788V73.6064H12.2822V71.9029Z" fill="#FAFAFA"/>
<path d="M13.9857 71.9029H12.2822V73.6064H13.9857V71.9029Z" fill="#FAFAFA"/>
<path d="M15.6891 71.9029H13.9857V73.6064H15.6891V71.9029Z" fill="#FAFAFA"/>
<path d="M17.3926 71.9029H15.6891V73.6064H17.3926V71.9029Z" fill="#FAFAFA"/>
<path d="M19.096 71.9029H17.3926V73.6064H19.096V71.9029Z" fill="#FAFAFA"/>
<path d="M29.3167 71.9029H27.6133V73.6064H29.3167V71.9029Z" fill="#FAFAFA"/>
<path d="M31.0201 71.9029H29.3167V73.6064H31.0201V71.9029Z" fill="#FAFAFA"/>
<path d="M32.7236 71.9029H31.0201V73.6064H32.7236V71.9029Z" fill="#FAFAFA"/>
<path d="M36.1305 71.9029H34.427V73.6064H36.1305V71.9029Z" fill="#FAFAFA"/>
<path d="M39.5374 71.9029H37.8339V73.6064H39.5374V71.9029Z" fill="#FAFAFA"/>
<path d="M42.9443 71.9029H41.2408V73.6064H42.9443V71.9029Z" fill="#FAFAFA"/>
<path d="M46.3512 71.9029H44.6477V73.6064H46.3512V71.9029Z" fill="#FAFAFA"/>
<path d="M49.7581 71.9029H48.0546V73.6064H49.7581V71.9029Z" fill="#FAFAFA"/>
<path d="M51.4615 71.9029H49.7581V73.6064H51.4615V71.9029Z" fill="#FAFAFA"/>
<path d="M54.8684 71.9029H53.165V73.6064H54.8684V71.9029Z" fill="#FAFAFA"/>
<path d="M56.5719 71.9029H54.8684V73.6064H56.5719V71.9029Z" fill="#FAFAFA"/>
<path d="M66.7926 71.9029H65.0891V73.6064H66.7926V71.9029Z" fill="#FAFAFA"/>
<path d="M70.1995 71.9029H68.496V73.6064H70.1995V71.9029Z" fill="#FAFAFA"/>
<path d="M73.6064 71.9029H71.9029V73.6064H73.6064V71.9029Z" fill="#FAFAFA"/>
<path d="M77.0132 71.9029H75.3098V73.6064H77.0132V71.9029Z" fill="#FAFAFA"/>
<path d="M82.1236 71.9029H80.4201V73.6064H82.1236V71.9029Z" fill="#FAFAFA"/>
<path d="M83.827 71.9029H82.1236V73.6064H83.827V71.9029Z" fill="#FAFAFA"/>
<path d="M8.87532 73.6064H7.17188V75.3098H8.87532V73.6064Z" fill="#FAFAFA"/>
<path d="M19.096 73.6064H17.3926V75.3098H19.096V73.6064Z" fill="#FAFAFA"/>
<path d="M24.2064 73.6064H22.5029V75.3098H24.2064V73.6064Z" fill="#FAFAFA"/>
<path d="M25.9098 73.6064H24.2064V75.3098H25.9098V73.6064Z" fill="#FAFAFA"/>
<path d="M32.7236 73.6064H31.0201V75.3098H32.7236V73.6064Z" fill="#FAFAFA"/>
<path d="M36.1305 73.6064H34.427V75.3098H36.1305V73.6064Z" fill="#FAFAFA"/>
<path d="M41.2408 73.6064H39.5374V75.3098H41.2408V73.6064Z" fill="#FAFAFA"/>
<path d="M42.9443 73.6064H41.2408V75.3098H42.9443V73.6064Z" fill="#FAFAFA"/>
<path d="M49.7581 73.6064H48.0546V75.3098H49.7581V73.6064Z" fill="#FAFAFA"/>
<path d="M58.2753 73.6064H56.5719V75.3098H58.2753V73.6064Z" fill="#FAFAFA"/>
<path d="M61.6822 73.6064H59.9788V75.3098H61.6822V73.6064Z" fill="#FAFAFA"/>
<path d="M66.7926 73.6064H65.0891V75.3098H66.7926V73.6064Z" fill="#FAFAFA"/>
<path d="M68.496 73.6064H66.7926V75.3098H68.496V73.6064Z" fill="#FAFAFA"/>
<path d="M70.1995 73.6064H68.496V75.3098H70.1995V73.6064Z" fill="#FAFAFA"/>
<path d="M77.0132 73.6064H75.3098V75.3098H77.0132V73.6064Z" fill="#FAFAFA"/>
<path d="M78.7167 73.6064H77.0132V75.3098H78.7167V73.6064Z" fill="#FAFAFA"/>
<path d="M83.827 73.6064H82.1236V75.3098H83.827V73.6064Z" fill="#FAFAFA"/>
<path d="M8.87532 75.3098H7.17188V77.0132H8.87532V75.3098Z" fill="#FAFAFA"/>
<path d="M12.2822 75.3098H10.5788V77.0132H12.2822V75.3098Z" fill="#FAFAFA"/>
<path d="M13.9857 75.3098H12.2822V77.0132H13.9857V75.3098Z" fill="#FAFAFA"/>
<path d="M15.6891 75.3098H13.9857V77.0132H15.6891V75.3098Z" fill="#FAFAFA"/>
<path d="M19.096 75.3098H17.3926V77.0132H19.096V75.3098Z" fill="#FAFAFA"/>
<path d="M27.6133 75.3098H25.9098V77.0132H27.6133V75.3098Z" fill="#FAFAFA"/>
<path d="M29.3167 75.3098H27.6133V77.0132H29.3167V75.3098Z" fill="#FAFAFA"/>
<path d="M31.0201 75.3098H29.3167V77.0132H31.0201V75.3098Z" fill="#FAFAFA"/>
<path d="M34.427 75.3098H32.7236V77.0132H34.427V75.3098Z" fill="#FAFAFA"/>
<path d="M39.5374 75.3098H37.8339V77.0132H39.5374V75.3098Z" fill="#FAFAFA"/>
<path d="M41.2408 75.3098H39.5374V77.0132H41.2408V75.3098Z" fill="#FAFAFA"/>
<path d="M42.9443 75.3098H41.2408V77.0132H42.9443V75.3098Z" fill="#FAFAFA"/>
<path d="M44.6477 75.3098H42.9443V77.0132H44.6477V75.3098Z" fill="#FAFAFA"/>
<path d="M46.3512 75.3098H44.6477V77.0132H46.3512V75.3098Z" fill="#FAFAFA"/>
<path d="M48.0546 75.3098H46.3512V77.0132H48.0546V75.3098Z" fill="#FAFAFA"/>
<path d="M49.7581 75.3098H48.0546V77.0132H49.7581V75.3098Z" fill="#FAFAFA"/>
<path d="M53.165 75.3098H51.4615V77.0132H53.165V75.3098Z" fill="#FAFAFA"/>
<path d="M56.5719 75.3098H54.8684V77.0132H56.5719V75.3098Z" fill="#FAFAFA"/>
<path d="M58.2753 75.3098H56.5719V77.0132H58.2753V75.3098Z" fill="#FAFAFA"/>
<path d="M59.9788 75.3098H58.2753V77.0132H59.9788V75.3098Z" fill="#FAFAFA"/>
<path d="M61.6822 75.3098H59.9788V77.0132H61.6822V75.3098Z" fill="#FAFAFA"/>
<path d="M66.7926 75.3098H65.0891V77.0132H66.7926V75.3098Z" fill="#FAFAFA"/>
<path d="M70.1995 75.3098H68.496V77.0132H70.1995V75.3098Z" fill="#FAFAFA"/>
<path d="M71.9029 75.3098H70.1995V77.0132H71.9029V75.3098Z" fill="#FAFAFA"/>
<path d="M73.6064 75.3098H71.9029V77.0132H73.6064V75.3098Z" fill="#FAFAFA"/>
<path d="M75.3098 75.3098H73.6064V77.0132H75.3098V75.3098Z" fill="#FAFAFA"/>
<path d="M77.0132 75.3098H75.3098V77.0132H77.0132V75.3098Z" fill="#FAFAFA"/>
<path d="M83.827 75.3098H82.1236V77.0132H83.827V75.3098Z" fill="#FAFAFA"/>
<path d="M8.87532 77.0132H7.17188V78.7167H8.87532V77.0132Z" fill="#FAFAFA"/>
<path d="M12.2822 77.0132H10.5788V78.7167H12.2822V77.0132Z" fill="#FAFAFA"/>
<path d="M13.9857 77.0132H12.2822V78.7167H13.9857V77.0132Z" fill="#FAFAFA"/>
<path d="M15.6891 77.0132H13.9857V78.7167H15.6891V77.0132Z" fill="#FAFAFA"/>
<path d="M19.096 77.0132H17.3926V78.7167H19.096V77.0132Z" fill="#FAFAFA"/>
<path d="M24.2064 77.0132H22.5029V78.7167H24.2064V77.0132Z" fill="#FAFAFA"/>
<path d="M27.6133 77.0132H25.9098V78.7167H27.6133V77.0132Z" fill="#FAFAFA"/>
<path d="M31.0201 77.0132H29.3167V78.7167H31.0201V77.0132Z" fill="#FAFAFA"/>
<path d="M34.427 77.0132H32.7236V78.7167H34.427V77.0132Z" fill="#FAFAFA"/>
<path d="M36.1305 77.0132H34.427V78.7167H36.1305V77.0132Z" fill="#FAFAFA"/>
<path d="M37.8339 77.0132H36.1305V78.7167H37.8339V77.0132Z" fill="#FAFAFA"/>
<path d="M46.3512 77.0132H44.6477V78.7167H46.3512V77.0132Z" fill="#FAFAFA"/>
<path d="M48.0546 77.0132H46.3512V78.7167H48.0546V77.0132Z" fill="#FAFAFA"/>
<path d="M49.7581 77.0132H48.0546V78.7167H49.7581V77.0132Z" fill="#FAFAFA"/>
<path d="M53.165 77.0132H51.4615V78.7167H53.165V77.0132Z" fill="#FAFAFA"/>
<path d="M54.8684 77.0132H53.165V78.7167H54.8684V77.0132Z" fill="#FAFAFA"/>
<path d="M56.5719 77.0132H54.8684V78.7167H56.5719V77.0132Z" fill="#FAFAFA"/>
<path d="M58.2753 77.0132H56.5719V78.7167H58.2753V77.0132Z" fill="#FAFAFA"/>
<path d="M59.9788 77.0132H58.2753V78.7167H59.9788V77.0132Z" fill="#FAFAFA"/>
<path d="M61.6822 77.0132H59.9788V78.7167H61.6822V77.0132Z" fill="#FAFAFA"/>
<path d="M68.496 77.0132H66.7926V78.7167H68.496V77.0132Z" fill="#FAFAFA"/>
<path d="M73.6064 77.0132H71.9029V78.7167H73.6064V77.0132Z" fill="#FAFAFA"/>
<path d="M77.0132 77.0132H75.3098V78.7167H77.0132V77.0132Z" fill="#FAFAFA"/>
<path d="M80.4201 77.0132H78.7167V78.7167H80.4201V77.0132Z" fill="#FAFAFA"/>
<path d="M82.1236 77.0132H80.4201V78.7167H82.1236V77.0132Z" fill="#FAFAFA"/>
<path d="M83.827 77.0132H82.1236V78.7167H83.827V77.0132Z" fill="#FAFAFA"/>
<path d="M8.87532 78.7167H7.17188V80.4201H8.87532V78.7167Z" fill="#FAFAFA"/>
<path d="M12.2822 78.7167H10.5788V80.4201H12.2822V78.7167Z" fill="#FAFAFA"/>
<path d="M13.9857 78.7167H12.2822V80.4201H13.9857V78.7167Z" fill="#FAFAFA"/>
<path d="M15.6891 78.7167H13.9857V80.4201H15.6891V78.7167Z" fill="#FAFAFA"/>
<path d="M19.096 78.7167H17.3926V80.4201H19.096V78.7167Z" fill="#FAFAFA"/>
<path d="M22.5029 78.7167H20.7995V80.4201H22.5029V78.7167Z" fill="#FAFAFA"/>
<path d="M25.9098 78.7167H24.2064V80.4201H25.9098V78.7167Z" fill="#FAFAFA"/>
<path d="M32.7236 78.7167H31.0201V80.4201H32.7236V78.7167Z" fill="#FAFAFA"/>
<path d="M34.427 78.7167H32.7236V80.4201H34.427V78.7167Z" fill="#FAFAFA"/>
<path d="M36.1305 78.7167H34.427V80.4201H36.1305V78.7167Z" fill="#FAFAFA"/>
<path d="M37.8339 78.7167H36.1305V80.4201H37.8339V78.7167Z" fill="#FAFAFA"/>
<path d="M41.2408 78.7167H39.5374V80.4201H41.2408V78.7167Z" fill="#FAFAFA"/>
<path d="M51.4615 78.7167H49.7581V80.4201H51.4615V78.7167Z" fill="#FAFAFA"/>
<path d="M53.165 78.7167H51.4615V80.4201H53.165V78.7167Z" fill="#FAFAFA"/>
<path d="M54.8684 78.7167H53.165V80.4201H54.8684V78.7167Z" fill="#FAFAFA"/>
<path d="M56.5719 78.7167H54.8684V80.4201H56.5719V78.7167Z" fill="#FAFAFA"/>
<path d="M59.9788 78.7167H58.2753V80.4201H59.9788V78.7167Z" fill="#FAFAFA"/>
<path d="M63.3857 78.7167H61.6822V80.4201H63.3857V78.7167Z" fill="#FAFAFA"/>
<path d="M75.3098 78.7167H73.6064V80.4201H75.3098V78.7167Z" fill="#FAFAFA"/>
<path d="M77.0132 78.7167H75.3098V80.4201H77.0132V78.7167Z" fill="#FAFAFA"/>
<path d="M80.4201 78.7167H78.7167V80.4201H80.4201V78.7167Z" fill="#FAFAFA"/>
<path d="M8.87532 80.4201H7.17188V82.1236H8.87532V80.4201Z" fill="#FAFAFA"/>
<path d="M19.096 80.4201H17.3926V82.1236H19.096V80.4201Z" fill="#FAFAFA"/>
<path d="M22.5029 80.4201H20.7995V82.1236H22.5029V80.4201Z" fill="#FAFAFA"/>
<path d="M25.9098 80.4201H24.2064V82.1236H25.9098V80.4201Z" fill="#FAFAFA"/>
<path d="M27.6133 80.4201H25.9098V82.1236H27.6133V80.4201Z" fill="#FAFAFA"/>
<path d="M34.427 80.4201H32.7236V82.1236H34.427V80.4201Z" fill="#FAFAFA"/>
<path d="M36.1305 80.4201H34.427V82.1236H36.1305V80.4201Z" fill="#FAFAFA"/>
<path d="M37.8339 80.4201H36.1305V82.1236H37.8339V80.4201Z" fill="#FAFAFA"/>
<path d="M39.5374 80.4201H37.8339V82.1236H39.5374V80.4201Z" fill="#FAFAFA"/>
<path d="M42.9443 80.4201H41.2408V82.1236H42.9443V80.4201Z" fill="#FAFAFA"/>
<path d="M49.7581 80.4201H48.0546V82.1236H49.7581V80.4201Z" fill="#FAFAFA"/>
<path d="M51.4615 80.4201H49.7581V82.1236H51.4615V80.4201Z" fill="#FAFAFA"/>
<path d="M54.8684 80.4201H53.165V82.1236H54.8684V80.4201Z" fill="#FAFAFA"/>
<path d="M61.6822 80.4201H59.9788V82.1236H61.6822V80.4201Z" fill="#FAFAFA"/>
<path d="M63.3857 80.4201H61.6822V82.1236H63.3857V80.4201Z" fill="#FAFAFA"/>
<path d="M65.0891 80.4201H63.3857V82.1236H65.0891V80.4201Z" fill="#FAFAFA"/>
<path d="M66.7926 80.4201H65.0891V82.1236H66.7926V80.4201Z" fill="#FAFAFA"/>
<path d="M70.1995 80.4201H68.496V82.1236H70.1995V80.4201Z" fill="#FAFAFA"/>
<path d="M77.0132 80.4201H75.3098V82.1236H77.0132V80.4201Z" fill="#FAFAFA"/>
<path d="M78.7167 80.4201H77.0132V82.1236H78.7167V80.4201Z" fill="#FAFAFA"/>
<path d="M80.4201 80.4201H78.7167V82.1236H80.4201V80.4201Z" fill="#FAFAFA"/>
<path d="M8.87532 82.1236H7.17188V83.827H8.87532V82.1236Z" fill="#FAFAFA"/>
<path d="M10.5788 82.1236H8.87532V83.827H10.5788V82.1236Z" fill="#FAFAFA"/>
<path d="M12.2822 82.1236H10.5788V83.827H12.2822V82.1236Z" fill="#FAFAFA"/>
<path d="M13.9857 82.1236H12.2822V83.827H13.9857V82.1236Z" fill="#FAFAFA"/>
<path d="M15.6891 82.1236H13.9857V83.827H15.6891V82.1236Z" fill="#FAFAFA"/>
<path d="M17.3926 82.1236H15.6891V83.827H17.3926V82.1236Z" fill="#FAFAFA"/>
<path d="M19.096 82.1236H17.3926V83.827H19.096V82.1236Z" fill="#FAFAFA"/>
<path d="M24.2064 82.1236H22.5029V83.827H24.2064V82.1236Z" fill="#FAFAFA"/>
<path d="M25.9098 82.1236H24.2064V83.827H25.9098V82.1236Z" fill="#FAFAFA"/>
<path d="M27.6133 82.1236H25.9098V83.827H27.6133V82.1236Z" fill="#FAFAFA"/>
<path d="M34.427 82.1236H32.7236V83.827H34.427V82.1236Z" fill="#FAFAFA"/>
<path d="M36.1305 82.1236H34.427V83.827H36.1305V82.1236Z" fill="#FAFAFA"/>
<path d="M37.8339 82.1236H36.1305V83.827H37.8339V82.1236Z" fill="#FAFAFA"/>
<path d="M41.2408 82.1236H39.5374V83.827H41.2408V82.1236Z" fill="#FAFAFA"/>
<path d="M42.9443 82.1236H41.2408V83.827H42.9443V82.1236Z" fill="#FAFAFA"/>
<path d="M46.3512 82.1236H44.6477V83.827H46.3512V82.1236Z" fill="#FAFAFA"/>
<path d="M58.2753 82.1236H56.5719V83.827H58.2753V82.1236Z" fill="#FAFAFA"/>
<path d="M65.0891 82.1236H63.3857V83.827H65.0891V82.1236Z" fill="#FAFAFA"/>
<path d="M66.7926 82.1236H65.0891V83.827H66.7926V82.1236Z" fill="#FAFAFA"/>
<path d="M68.496 82.1236H66.7926V83.827H68.496V82.1236Z" fill="#FAFAFA"/>
<path d="M70.1995 82.1236H68.496V83.827H70.1995V82.1236Z" fill="#FAFAFA"/>
<path d="M75.3098 82.1236H73.6064V83.827H75.3098V82.1236Z" fill="#FAFAFA"/>
<path d="M82.1236 82.1236H80.4201V83.827H82.1236V82.1236Z" fill="#FAFAFA"/>
</g>
<defs>
<clipPath id="clip0_7845_99693">
<rect width="91" height="91" fill="white"/>
</clipPath>
</defs>
</svg>
