<svg width="24" height="24" viewBox="0 0 24 24" fill="none" xmlns="http://www.w3.org/2000/svg">
<path d="M18.25 22V17.8105L16.5303 19.5303C16.2374 19.8232 15.7626 19.8232 15.4697 19.5303C15.1768 19.2374 15.1768 18.7626 15.4697 18.4697L18.4697 15.4697L18.5264 15.418C18.8209 15.1777 19.2557 15.1951 19.5303 15.4697L22.5303 18.4697C22.8232 18.7626 22.8232 19.2374 22.5303 19.5303C22.2374 19.8232 21.7626 19.8232 21.4697 19.5303L19.75 17.8105V22C19.75 22.4142 19.4142 22.75 19 22.75C18.5858 22.75 18.25 22.4142 18.25 22ZM15.25 7V5.75H8.75V7C8.75 7.41421 8.41421 7.75 8 7.75C7.58579 7.75 7.25 7.41421 7.25 7V5.75H6C5.66848 5.75 5.35063 5.88179 5.11621 6.11621C4.88179 6.35063 4.75 6.66848 4.75 7V10.25H19.25V7C19.25 6.66848 19.1182 6.35063 18.8838 6.11621C18.6494 5.88179 18.3315 5.75 18 5.75H16.75V7C16.75 7.41421 16.4142 7.75 16 7.75C15.5858 7.75 15.25 7.41421 15.25 7ZM20.75 12C20.75 12.4142 20.4142 12.75 20 12.75C19.5858 12.75 19.25 12.4142 19.25 12V11.75H4.75V19C4.75 19.3315 4.88179 19.6494 5.11621 19.8838C5.35063 20.1182 5.66848 20.25 6 20.25H12.5C12.9142 20.25 13.25 20.5858 13.25 21C13.25 21.4142 12.9142 21.75 12.5 21.75H6C5.27065 21.75 4.57139 21.4601 4.05566 20.9443C3.53994 20.4286 3.25 19.7293 3.25 19V7C3.25 6.27065 3.53994 5.57139 4.05566 5.05566C4.57139 4.53994 5.27065 4.25 6 4.25H7.25V3C7.25 2.58579 7.58579 2.25 8 2.25C8.41421 2.25 8.75 2.58579 8.75 3V4.25H15.25V3C15.25 2.58579 15.5858 2.25 16 2.25C16.4142 2.25 16.75 2.58579 16.75 3V4.25H18C18.7293 4.25 19.4286 4.53994 19.9443 5.05566C20.4601 5.57139 20.75 6.27065 20.75 7V12Z" fill="white"/>
</svg>
