<svg width="24" height="24" viewBox="0 0 24 24" fill="none" xmlns="http://www.w3.org/2000/svg">
<path d="M19.2499 13.9999C19.2499 13.138 18.9073 12.3116 18.2978 11.7021C17.6883 11.0926 16.8619 10.7499 15.9999 10.7499H6.81049L9.53022 13.4697C9.82311 13.7626 9.82311 14.2373 9.53022 14.5302C9.23732 14.8231 8.76256 14.8231 8.46967 14.5302L4.46967 10.5302C4.17678 10.2373 4.17678 9.76256 4.46967 9.46967L8.46967 5.46967C8.76256 5.17678 9.23732 5.17678 9.53022 5.46967C9.82311 5.76256 9.82311 6.23732 9.53022 6.53022L6.81049 9.24994H15.9999C17.2597 9.24994 18.4675 9.75075 19.3583 10.6415C20.2491 11.5323 20.7499 12.7402 20.7499 13.9999C20.7499 15.2597 20.2491 16.4675 19.3583 17.3583C18.4675 18.2491 17.2597 18.7499 15.9999 18.7499H14.9999C14.5857 18.7499 14.2499 18.4142 14.2499 17.9999C14.2499 17.5857 14.5857 17.2499 14.9999 17.2499H15.9999C16.8619 17.2499 17.6883 16.9073 18.2978 16.2978C18.9073 15.6883 19.2499 14.8619 19.2499 13.9999Z" fill="#424242"/>
</svg>
